<?xml version="1.0" standalone="no"?>
<!DOCTYPE svg PUBLIC "-//W3C//DTD SVG 20010904//EN"
 "http://www.w3.org/TR/2001/REC-SVG-20010904/DTD/svg10.dtd">
<svg version="1.0" xmlns="http://www.w3.org/2000/svg"
 width="615.000000pt" height="125.000000pt" viewBox="0 0 615.000000 125.000000"
 preserveAspectRatio="xMidYMid meet">

<g transform="translate(0.000000,125.000000) scale(0.100000,-0.100000)"
fill="#000000" stroke="none">
<path d="M130 1155 c0 -5 13 -17 29 -26 28 -16 28 -19 32 -115 3 -55 2 -191
-1 -303 -5 -197 -6 -204 -28 -219 -49 -32 -28 -38 143 -37 91 0 165 3 165 7 0
4 -13 16 -29 27 -43 31 -52 64 -49 186 l3 110 94 -145 c118 -182 186 -252 266
-275 70 -21 183 -17 235 8 43 21 127 93 119 101 -3 4 -32 -7 -64 -24 -69 -36
-104 -37 -170 -6 -59 28 -101 71 -181 186 -32 46 -71 99 -87 116 l-28 32 38
12 c75 24 123 89 123 165 0 80 -43 141 -130 187 -43 22 -54 23 -262 23 -139 0
-218 -4 -218 -10z m359 -62 c44 -33 63 -80 58 -145 -7 -80 -32 -111 -107 -136
l-60 -19 0 165 0 165 42 -6 c23 -3 53 -14 67 -24z"/>
<path d="M1316 1104 c-44 -34 -83 -69 -87 -77 -5 -8 -22 -20 -39 -27 -16 -7
-30 -15 -30 -19 0 -14 25 -31 46 -31 21 0 21 -2 20 -172 -1 -166 0 -175 23
-212 30 -48 75 -76 123 -76 49 0 77 12 116 48 38 36 42 58 10 47 -59 -18 -75
-17 -92 6 -13 19 -16 53 -16 191 l0 168 48 0 c48 0 72 12 72 37 0 9 -16 13
-50 13 -48 0 -49 1 -55 33 -3 17 -6 55 -8 83 l-2 51 -79 -63z"/>
<path d="M2725 1142 c-82 -40 -139 -92 -169 -155 -30 -61 -49 -173 -40 -225
17 -95 107 -222 188 -265 33 -18 58 -22 131 -22 121 0 202 26 220 69 15 37 29
134 17 121 -4 -6 -21 -27 -36 -49 -49 -65 -143 -94 -205 -61 -77 39 -125 159
-126 310 0 219 95 319 226 236 59 -37 86 -72 105 -137 30 -103 37 -76 39 144
l0 47 -45 2 c-25 1 -90 5 -145 8 -96 6 -102 5 -160 -23z"/>
<path d="M4133 1162 c-40 -4 -41 -8 -8 -34 l25 -19 0 -294 0 -293 -25 -30
c-14 -17 -25 -32 -25 -34 0 -2 70 -4 155 -5 85 -2 155 1 155 6 0 5 -11 16 -25
25 -34 23 -47 76 -43 189 l3 99 80 -123 c95 -144 183 -240 251 -271 41 -19 66
-23 149 -23 106 0 142 12 223 72 62 47 30 59 -45 17 -43 -24 -55 -26 -104 -20
-88 11 -132 46 -258 203 l-111 138 37 13 c76 26 117 94 111 181 -5 75 -47 136
-120 176 -53 30 -53 30 -223 30 -93 0 -185 -1 -202 -3z m304 -68 c54 -34 75
-131 46 -208 -20 -55 -51 -82 -105 -92 l-38 -6 0 167 0 167 38 -7 c20 -3 47
-13 59 -21z"/>
<path d="M5860 1135 c-6 -7 -36 -28 -66 -44 -29 -17 -61 -42 -69 -55 -9 -14
-30 -29 -46 -35 -30 -10 -40 -40 -14 -42 8 -1 21 -2 28 -3 9 -1 13 -47 17
-181 5 -163 7 -183 27 -215 54 -87 170 -92 256 -12 43 41 36 53 -26 46 -44 -5
-57 -3 -72 12 -16 16 -17 30 -11 123 3 57 6 131 6 164 l0 60 50 -6 c42 -5 51
-3 60 13 22 42 14 50 -51 50 l-62 0 6 56 c8 77 -4 104 -33 69z"/>
<path d="M1660 1009 c-14 -6 -50 -13 -80 -17 -39 -5 -56 -12 -58 -23 -2 -10 5
-19 17 -22 20 -5 21 -11 19 -193 -2 -183 -2 -188 -26 -216 -15 -18 -21 -33
-16 -38 6 -6 65 -7 141 -3 l132 6 -29 34 -30 34 0 140 c0 177 12 206 64 154
34 -34 62 -31 102 9 41 41 44 77 9 111 -36 37 -82 33 -132 -10 -23 -19 -44
-35 -47 -35 -4 0 -3 18 0 40 6 37 5 40 -17 39 -13 0 -35 -5 -49 -10z"/>
<path d="M3690 1004 c-25 -7 -62 -14 -82 -14 -43 0 -47 -9 -18 -35 19 -17 20
-31 20 -210 0 -178 -1 -194 -20 -215 -11 -13 -20 -26 -20 -29 0 -3 61 -5 135
-3 74 2 135 7 135 12 0 4 -12 17 -26 27 -25 19 -26 23 -31 149 -6 153 2 198
38 202 15 2 32 -5 44 -18 10 -11 25 -20 34 -20 26 0 81 38 93 65 14 30 -7 67
-53 90 -39 20 -79 8 -126 -37 l-33 -32 0 42 c0 37 -3 42 -22 41 -13 0 -43 -7
-68 -15z"/>
<path d="M5280 1009 c-19 -5 -64 -13 -100 -17 -67 -7 -81 -20 -42 -37 22 -10
22 -12 22 -203 l0 -194 -31 -29 -31 -29 146 0 c118 0 146 3 146 14 0 7 -11 21
-25 30 l-25 17 2 166 3 167 33 13 c31 13 34 12 63 -16 l29 -29 0 -162 c0 -153
-1 -162 -20 -167 -12 -3 -20 -14 -20 -26 0 -18 4 -19 46 -13 26 3 87 6 136 6
78 0 89 2 86 16 -2 9 -12 22 -23 28 -11 6 -23 16 -27 21 -4 6 -8 79 -8 163 0
180 -8 205 -78 252 -61 40 -111 40 -172 0 -25 -16 -49 -30 -53 -30 -4 0 -5 16
-1 35 7 39 4 40 -56 24z"/>
<path d="M914 999 c-58 -16 -127 -73 -153 -124 -109 -211 97 -448 304 -351 65
30 153 126 116 126 -5 0 -11 -6 -14 -14 -10 -25 -94 -58 -129 -51 -66 15 -121
72 -133 138 l-7 37 125 0 c69 0 132 3 141 6 21 8 21 71 0 124 -11 27 -31 50
-58 68 -78 53 -121 62 -192 41z m84 -51 c40 -44 56 -121 26 -132 -9 -3 -40 -6
-70 -6 -61 0 -61 1 -43 80 10 46 33 80 54 80 6 0 21 -10 33 -22z"/>
<path d="M2085 996 c-126 -40 -195 -128 -195 -249 0 -193 193 -317 364 -233
88 43 155 146 156 237 0 97 -92 214 -193 244 -60 18 -79 18 -132 1z m110 -79
c49 -85 53 -284 7 -347 -29 -38 -63 -37 -88 2 -33 52 -47 106 -48 188 -1 92 8
140 35 174 32 40 63 34 94 -17z"/>
<path d="M3224 996 c-51 -23 -104 -75 -104 -103 0 -40 18 -63 48 -63 37 0 52
17 52 58 0 51 15 72 54 72 41 0 62 -22 75 -80 13 -58 2 -75 -56 -89 -65 -17
-138 -58 -174 -98 -39 -45 -40 -99 -3 -143 58 -68 140 -81 199 -29 l35 31 26
-31 c21 -25 33 -31 66 -31 87 0 153 37 115 65 -29 21 -37 64 -37 204 0 127 -2
141 -23 171 -35 53 -79 73 -166 77 -51 2 -86 -1 -107 -11z m130 -271 c4 -19 4
-57 0 -84 -6 -48 -8 -51 -41 -57 -48 -9 -65 11 -65 74 0 60 5 70 46 88 46 20
53 17 60 -21z"/>
<path d="M4823 985 c-86 -44 -153 -142 -153 -225 0 -66 31 -134 85 -187 76
-74 173 -95 253 -54 55 28 146 131 116 131 -3 0 -23 -14 -45 -32 -78 -63 -181
-28 -224 75 -27 66 -27 67 88 68 56 0 122 4 147 7 l45 7 -3 40 c-7 94 -104
185 -205 192 -42 4 -62 -1 -104 -22z m127 -59 c11 -24 24 -60 27 -80 l6 -36
-72 0 -72 0 6 38 c13 80 17 93 32 107 26 27 50 18 73 -29z"/>
<path d="M2023 293 c11 -65 -5 -71 -55 -24 -25 22 -48 41 -52 41 -3 0 -6 -38
-6 -85 0 -69 3 -85 15 -85 11 0 15 12 15 45 l0 44 46 -49 c26 -28 51 -50 55
-50 5 0 9 42 9 94 0 78 -3 95 -16 100 -14 5 -16 1 -11 -31z"/>
<path d="M2302 261 c-42 -93 -48 -121 -29 -121 9 0 19 9 22 20 5 15 15 20 43
20 26 0 41 -6 50 -20 13 -21 42 -27 42 -9 0 11 -89 179 -94 179 -2 0 -17 -31
-34 -69z m52 -27 c4 -9 4 -19 2 -21 -8 -8 -26 8 -26 23 0 19 16 18 24 -2z"/>
<path d="M2682 235 l3 -90 59 -3 c51 -3 58 -1 52 13 -3 9 -6 19 -6 21 0 2 -16
4 -35 4 -24 0 -35 5 -35 15 0 10 11 15 35 15 28 0 35 4 35 20 0 16 -7 20 -35
20 -24 0 -35 5 -35 15 0 8 9 15 21 15 24 0 59 17 59 29 0 5 -27 11 -60 13
l-61 3 3 -90z"/>
<path d="M4040 235 c0 -88 2 -95 20 -95 17 0 19 5 14 53 l-5 52 18 -25 c80
-109 95 -108 91 7 -2 58 -7 88 -15 91 -9 2 -13 -10 -13 -42 0 -25 -3 -46 -7
-45 -5 0 -25 22 -46 50 -20 27 -42 49 -47 49 -6 0 -10 -39 -10 -95z"/>
<path d="M1576 298 c13 -43 79 -162 92 -166 6 -2 12 2 12 10 0 7 14 46 32 86
22 51 29 75 21 83 -7 7 -20 -7 -43 -48 l-33 -58 -18 40 c-10 22 -20 48 -23 58
-2 9 -14 17 -26 17 -18 0 -20 -4 -14 -22z"/>
<path d="M2120 311 c-14 -4 -26 -15 -28 -24 -3 -14 2 -16 27 -11 30 6 31 6 32
-32 2 -56 12 -97 26 -101 8 -3 13 16 15 64 3 66 4 68 31 71 20 3 27 8 25 20
-2 13 -15 17 -53 19 -28 1 -61 -2 -75 -6z"/>
<path d="M2507 309 c-28 -16 -49 -73 -38 -102 11 -28 66 -77 87 -77 22 0 64
46 64 69 0 22 -53 56 -70 46 -17 -11 -11 -23 13 -27 26 -4 29 -26 5 -42 -14
-9 -23 -5 -45 17 -26 26 -27 29 -13 54 22 39 46 51 71 35 27 -17 32 -11 13 16
-16 24 -56 29 -87 11z"/>
<path d="M3010 303 c-62 -42 -67 -86 -15 -132 42 -36 38 -35 76 -15 38 19 32
39 -12 39 -44 1 -59 11 -59 39 0 33 24 50 60 43 32 -7 47 5 27 21 -25 20 -53
22 -77 5z"/>
<path d="M3364 298 c3 -13 6 -53 6 -90 0 -76 17 -91 38 -36 l12 32 35 -34 c40
-39 50 -36 34 10 -10 27 -9 37 4 60 13 22 14 30 4 43 -16 21 -60 37 -104 37
-32 0 -35 -2 -29 -22z m93 -24 c3 -8 1 -20 -4 -25 -14 -14 -43 0 -43 22 0 24
38 26 47 3z"/>
<path d="M3662 234 c3 -87 19 -122 32 -69 8 32 26 32 56 0 37 -39 69 -32 33 7
-14 16 -15 23 -5 38 33 53 4 92 -76 105 l-43 7 3 -88z m88 46 c20 -13 2 -44
-29 -48 -18 -3 -21 2 -21 27 0 33 19 41 50 21z"/>
<path d="M3860 230 l0 -90 60 0 c45 0 60 3 60 14 0 9 -12 16 -32 18 -42 4 -54
38 -13 38 20 0 26 4 23 17 -2 10 -12 19 -23 22 -45 8 -35 41 13 41 13 0 22 6
22 15 0 12 -13 15 -55 15 l-55 0 0 -90z"/>
<path d="M4263 313 c-42 -5 -43 -29 -3 -38 30 -6 30 -7 30 -72 0 -47 3 -64 13
-61 7 3 13 28 15 65 3 58 5 62 32 72 17 5 30 17 30 25 0 16 -36 19 -117 9z"/>
<path d="M4415 234 c-24 -57 -33 -90 -27 -96 13 -13 32 -2 32 17 0 18 41 29
75 21 14 -4 25 -13 25 -21 0 -8 7 -15 15 -15 19 0 11 43 -15 80 -10 14 -25 42
-33 63 -9 20 -20 37 -25 37 -5 0 -26 -39 -47 -86z m47 -16 c-9 -9 -12 -7 -12
12 0 19 3 21 12 12 9 -9 9 -15 0 -24z"/>
<path d="M4602 228 l3 -93 55 0 c44 0 55 3 58 18 3 13 -4 17 -30 17 -50 0 -57
10 -60 79 -2 42 -8 66 -16 69 -10 3 -12 -17 -10 -90z"/>
<path d="M1796 301 c-4 -5 -2 -40 4 -78 5 -37 10 -74 10 -81 0 -7 5 -10 10 -7
6 3 10 44 10 91 0 66 -3 84 -14 84 -8 0 -17 -4 -20 -9z"/>
<path d="M3187 243 c-15 -38 -27 -77 -26 -88 0 -19 1 -19 16 3 19 27 77 31 91
5 11 -18 42 -11 42 9 0 23 -66 133 -82 136 -10 2 -23 -19 -41 -65z m53 -9 c0
-8 -7 -14 -15 -14 -15 0 -21 21 -9 33 10 9 24 -2 24 -19z"/>
<path d="M563 272 c-328 -2 -403 -5 -403 -16 0 -18 228 -26 802 -26 362 0 469
3 466 12 -3 7 -18 15 -34 19 -42 10 -365 14 -831 11z"/>
<path d="M4842 260 c3 -20 9 -21 575 -23 314 -1 575 1 578 5 4 4 5 14 2 23 -6
13 -72 15 -582 15 -574 0 -576 0 -573 -20z"/>
<path d="M160 168 l0 -23 587 3 c324 2 594 5 602 8 11 4 12 7 2 17 -9 9 -155
13 -601 15 l-590 3 0 -23z"/>
<path d="M4918 183 c-33 -3 -48 -9 -48 -18 0 -13 83 -15 560 -17 l560 -3 0 23
0 22 -512 -2 c-282 -1 -534 -3 -560 -5z"/>
<path d="M2995 16 c-48 -13 -42 -14 115 -14 115 0 156 3 135 9 -54 16 -197 19
-250 5z"/>
</g>
</svg>
