<?xml version="1.0" standalone="no"?>
<!DOCTYPE svg PUBLIC "-//W3C//DTD SVG 20010904//EN"
 "http://www.w3.org/TR/2001/REC-SVG-20010904/DTD/svg10.dtd">
<svg version="1.0" xmlns="http://www.w3.org/2000/svg"
 width="1024.000000pt" height="1024.000000pt" viewBox="0 0 1024.000000 1024.000000"
 preserveAspectRatio="xMidYMid meet">
<metadata>
Created by potrace 1.16, written by Peter Selinger 2001-2019
</metadata>
<g transform="translate(0.000000,1024.000000) scale(0.100000,-0.100000)"
fill="#000000" stroke="none">
<path d="M4685 8240 c-144 -19 -430 -84 -552 -125 -249 -85 -513 -221 -728
-377 -69 -51 -83 -73 -37 -61 15 4 726 7 1580 7 l1554 1 -46 42 c-63 57 -283
202 -381 251 -100 49 -274 121 -380 156 -98 32 -371 91 -485 105 -96 12 -434
13 -525 1z m-30 -320 c17 -4 -98 -7 -255 -7 -157 0 -265 3 -240 7 61 10 458
10 495 0z m1165 0 c-182 -14 -780 -23 -780 -12 0 17 43 19 470 19 248 0 368
-3 310 -7z m-797 -7 c-7 -2 -21 -2 -30 0 -10 3 -4 5 12 5 17 0 24 -2 18 -5z
m477 -88 c145 -11 305 -15 479 -13 166 2 260 -1 258 -7 -7 -19 -57 -23 -327
-25 -151 -1 -313 -6 -360 -12 -110 -13 -678 -18 -840 -7 -69 4 -341 10 -605
14 -263 3 -481 8 -483 10 -15 15 125 24 463 30 215 4 433 10 485 14 196 15
707 12 930 -4z"/>
<path d="M6495 7657 c-35 -19 -700 -28 -1935 -25 -896 3 -1192 6 -1212 15 -26
12 -32 9 -89 -38 -33 -28 -58 -53 -56 -55 2 -3 260 0 573 6 643 11 1725 12
2189 2 171 -4 390 -5 488 -2 175 5 177 5 163 25 -7 11 -33 34 -58 52 -36 26
-47 29 -63 20z"/>
<path d="M3141 7479 c-23 -28 -28 -40 -19 -45 9 -6 3305 -10 3596 -5 46 1 41
26 -12 59 -42 27 -46 28 -132 20 -427 -35 -3147 -35 -3355 0 -45 8 -47 7 -78
-29z"/>
<path d="M3045 7350 c3 -5 -2 -10 -13 -10 -10 0 -27 -9 -37 -20 -37 -41 -16
-43 327 -30 327 12 3218 8 3446 -5 86 -5 102 -4 102 9 0 8 -15 25 -32 38 l-33
23 -310 -5 c-481 -8 -3100 -5 -3288 3 -114 5 -166 4 -162 -3z"/>
<path d="M6775 7198 c-19 -6 -259 -9 -642 -8 -429 1 -613 -2 -613 -9 0 -8 88
-11 278 -12 152 0 387 -3 522 -7 135 -4 334 -5 443 -2 l198 5 -21 23 c-17 18
-31 22 -78 21 -31 0 -70 -5 -87 -11z"/>
<path d="M2933 7193 c-12 -2 -27 -11 -33 -19 -11 -12 23 -14 256 -12 148 1
247 3 219 5 -162 10 -219 17 -190 24 32 7 -214 9 -252 2z"/>
<path d="M4268 7183 c7 -3 16 -2 19 1 4 3 -2 6 -13 5 -11 0 -14 -3 -6 -6z"/>
<path d="M4395 7181 c-4 -3 -165 -9 -358 -12 -194 -3 -32 -4 358 -1 391 2 773
7 850 11 88 4 -43 7 -352 8 -271 0 -495 -2 -498 -6z"/>
<path d="M2820 7045 c-6 -7 643 -11 2097 -14 1605 -2 2104 0 2101 9 -5 15
-4185 21 -4198 5z"/>
<path d="M6200 6920 c-383 -5 -370 -5 245 -8 422 -1 645 2 635 8 -15 10 -130
10 -880 0z"/>
<path d="M5093 6913 c42 -2 112 -2 155 0 42 1 7 3 -78 3 -85 0 -120 -2 -77 -3z"/>
<path d="M5488 6913 c29 -2 74 -2 100 0 26 2 2 3 -53 3 -55 0 -76 -1 -47 -3z"/>
<path d="M2860 6860 c-649 -12 -732 -20 -865 -84 -93 -44 -154 -105 -201 -201
l-38 -77 -7 -227 c-9 -308 2 -490 37 -606 14 -49 29 -99 31 -110 3 -16 -18
-43 -84 -110 -49 -50 -115 -129 -146 -177 -54 -83 -59 -87 -83 -78 -40 16 -86
12 -121 -10 -28 -17 -33 -25 -33 -59 0 -50 26 -82 73 -90 l37 -6 -32 -60 c-53
-101 -116 -191 -143 -203 -14 -7 -39 -12 -54 -12 -35 0 -41 -13 -41 -90 0 -93
2 -94 281 -106 l146 -6 38 -79 c45 -93 96 -155 167 -201 47 -31 49 -33 27 -39
-13 -4 -151 -7 -306 -8 -276 -1 -283 -1 -294 -22 -8 -16 -8 -24 1 -33 8 -8
952 -12 3708 -14 2033 -1 3707 0 3720 3 26 6 31 49 6 59 -9 3 -137 6 -285 6
-158 0 -269 4 -269 9 0 5 26 24 58 42 74 42 197 167 244 247 20 35 49 99 64
143 l27 79 126 0 c188 0 171 -17 171 171 0 87 -4 160 -8 163 -5 3 -74 8 -153
12 l-144 7 -22 72 c-12 39 -33 88 -47 108 l-25 36 49 -6 c55 -6 105 9 120 38
58 107 -150 311 -377 369 l-43 11 0 59 c0 194 -162 337 -322 285 -42 -14 -68
-34 -125 -91 l-73 -74 0 40 c0 153 -83 287 -212 344 -66 28 -73 48 -33 86 32
30 41 77 22 123 -34 80 -147 90 -204 19 -7 -9 -13 -41 -13 -73 0 -53 2 -59 42
-97 l42 -41 -26 -10 c-53 -20 -285 -32 -853 -44 -599 -12 -772 -10 -768 9 1 6
5 74 9 152 l7 140 36 7 c43 8 91 41 91 62 0 29 -40 81 -74 97 -18 9 -103 25
-187 36 -85 11 -206 26 -269 35 -63 8 -252 24 -420 35 -168 12 -336 26 -375
32 -89 13 -1071 18 -1605 8z m1375 -81 c126 -2 127 -2 55 -10 -41 -4 -480 -13
-975 -19 -1036 -12 -1084 -15 -1226 -86 -94 -47 -120 -82 -157 -214 l-10 -35
-1 47 c-1 26 8 71 19 100 22 59 5 45 -32 -27 -11 -22 -25 -43 -31 -46 -17 -11
-29 -198 -23 -359 4 -124 3 -151 -7 -135 -8 14 -12 85 -12 245 1 213 2 228 24
284 60 152 187 220 446 241 101 9 1596 25 1720 19 44 -2 139 -5 210 -5z m520
-38 c121 -11 317 -30 435 -42 359 -34 538 -64 517 -86 -2 -2 -46 3 -98 11 -52
8 -191 24 -309 36 -118 11 -303 29 -410 40 -107 10 -233 22 -279 25 -77 5
-151 25 -151 41 0 3 17 4 38 1 20 -2 136 -14 257 -26z m-1449 -67 c46 -12 52
-42 57 -319 l5 -260 -9 205 c-5 113 -13 237 -17 275 l-7 70 -410 -4 c-225 -2
-412 -6 -415 -8 -3 -3 -5 -119 -5 -259 0 -197 -3 -254 -12 -254 -10 0 -13 58
-13 259 0 228 2 260 17 272 11 10 62 16 172 20 219 8 612 10 637 3z m974 -4
c-30 -4 -210 -10 -400 -14 -189 -3 -348 -10 -352 -14 -5 -5 -7 -125 -6 -268
l3 -259 365 0 c411 0 475 -2 445 -14 -11 -5 -193 -11 -404 -14 l-383 -6 -29
29 -29 28 1 169 c1 92 4 211 8 263 l6 95 40 6 c22 3 209 6 415 6 212 0 351 -3
320 -7z m119 -313 c0 -191 -4 -301 -9 -283 -13 42 -13 609 0 601 6 -4 10 -115
9 -318z m-2059 283 c18 -11 7 -16 -65 -24 -67 -8 -133 -50 -168 -108 -66 -107
-49 -394 27 -457 10 -8 61 -15 141 -19 69 -2 125 -9 125 -13 0 -5 -55 -9 -123
-9 -122 0 -124 0 -149 28 -14 15 -39 52 -54 82 -27 52 -29 62 -29 180 0 97 4
136 19 175 22 58 57 109 92 131 57 38 151 55 184 34z m2162 -243 l3 -254 28
-40 c15 -22 45 -50 67 -62 42 -23 52 -41 23 -41 -32 1 -97 54 -118 95 -17 35
-20 70 -27 280 -4 132 -5 248 -2 258 16 54 23 -10 26 -236z m-2102 -34 c0
-152 -2 -274 -4 -272 -2 2 -6 127 -10 277 -5 189 -4 272 3 272 8 0 11 -88 11
-277z m3170 21 l0 -137 -38 6 c-20 4 -157 10 -302 13 -312 8 -458 -4 -612 -52
-17 -5 -18 5 -18 124 0 92 4 133 13 140 28 23 258 36 720 40 l237 2 0 -136z
m1787 90 c15 -24 15 -29 2 -53 -11 -19 -21 -25 -40 -22 -29 4 -39 17 -39 52 0
52 48 66 77 23z m-4695 -95 c29 -6 70 -20 91 -30 l37 -19 0 -113 0 -113 275 4
c199 3 275 1 275 -7 0 -15 24 -14 -390 -17 -281 -2 -370 1 -385 10 -19 12 -20
20 -14 112 4 54 7 118 8 142 1 48 9 51 103 31z m-384 -105 c12 -8 22 -24 22
-37 0 -12 9 -48 20 -81 11 -32 17 -62 14 -67 -8 -14 -81 -11 -119 5 -48 20
-56 42 -48 131 l6 76 41 -6 c23 -4 51 -13 64 -21z m5170 -73 c52 -27 135 -122
119 -137 -2 -3 -15 11 -27 31 -29 47 -75 80 -129 95 -59 16 -115 -6 -190 -73
-46 -42 -57 -48 -59 -33 -5 25 51 81 112 111 60 30 123 32 174 6z m-2033 0
c-6 -5 -33 -16 -62 -25 -65 -22 -158 -81 -200 -129 -33 -37 -63 -49 -63 -23 0
19 86 97 144 131 51 30 122 53 166 54 14 1 20 -3 15 -8z m1793 -1 c-9 -6 -48
-54 -86 -108 -38 -54 -77 -104 -86 -111 -10 -8 -49 -16 -91 -18 -73 -5 -75 -4
-75 19 0 12 9 38 21 57 29 47 126 140 163 157 36 15 181 19 154 4z m-3873
-169 c54 -12 -155 -21 -512 -21 -216 0 -343 4 -343 10 0 15 793 25 855 11z
m981 1 c-7 -11 -708 -25 -803 -16 -170 16 -45 24 368 24 242 0 438 -4 435 -8z
m3035 -15 c110 -74 155 -230 103 -356 -41 -99 -102 -151 -176 -151 -88 0 -182
107 -214 245 -26 111 3 186 98 249 66 45 135 50 189 13z m666 -23 c75 -43 132
-169 118 -257 -35 -217 -230 -288 -352 -129 -58 76 -79 194 -48 269 53 126
178 178 282 117z m-1207 -4 c-10 -19 -21 -20 -408 -20 -218 0 -562 -3 -764 -7
-339 -6 -368 -5 -368 10 0 10 1 18 3 19 1 1 313 5 692 8 380 3 727 7 773 8 80
2 82 1 72 -18z m-2256 -35 c-20 -15 -80 -20 -111 -8 -15 6 -13 9 12 14 17 4
50 7 74 8 42 1 43 0 25 -14z m526 -32 c210 -99 315 -271 342 -559 l12 -124
-25 -26 c-35 -38 -138 -124 -149 -124 -5 0 -7 6 -5 13 13 35 23 263 14 319
-14 91 -80 221 -145 284 -84 82 -128 99 -259 99 -103 0 -113 -2 -165 -30 -276
-150 -333 -545 -113 -776 69 -73 147 -112 256 -130 l79 -12 -24 -23 c-27 -26
-137 -74 -170 -74 -37 0 -147 70 -213 135 -67 67 -121 161 -154 269 -42 137
-23 355 43 489 62 127 193 243 331 293 61 22 82 24 165 21 86 -4 103 -8 180
-44z m-1772 30 c193 -15 51 -23 -398 -23 -309 0 -480 4 -480 10 0 6 132 11
363 13 199 1 378 3 397 5 19 1 72 -1 118 -5z m1097 -6 c-15 -9 -144 -13 -497
-15 -427 -3 -478 -1 -478 12 0 14 54 16 498 16 395 -1 493 -3 477 -13z m-1997
-9 c-4 -10 -74 -14 -289 -18 -156 -3 -286 -4 -288 -3 -26 18 107 28 397 31
143 2 183 -1 180 -10z m4210 -54 c14 -10 22 -25 22 -46 0 -26 -3 -29 -22 -25
-13 3 -56 9 -95 13 -61 5 -73 10 -73 25 0 9 7 25 16 33 21 22 122 22 152 0z
m-2396 -14 l176 0 7 -30 c6 -25 0 -42 -34 -93 -107 -165 -142 -350 -106 -552
8 -44 15 -86 15 -92 0 -10 -80 -13 -362 -14 -200 -1 -374 -4 -388 -9 -24 -7
-24 -8 -5 -16 21 -9 738 -13 765 -4 11 4 16 -3 18 -23 l3 -27 -413 2 -413 3
-17 74 c-28 123 -39 284 -36 536 l3 240 285 5 c157 3 294 5 305 3 11 -1 100
-3 197 -3z m-1832 -56 c0 -28 3 -71 6 -96 l6 -45 -123 1 -124 1 -123 -52 -124
-51 -25 54 c-28 62 -61 209 -49 221 6 7 325 18 503 18 l53 0 0 -51z m993 -316
c3 -223 10 -395 17 -427 7 -35 8 -57 2 -63 -7 -7 -109 -7 -288 -2 l-277 9 -18
53 c-26 77 -115 233 -168 296 -119 139 -294 231 -496 259 -16 2 3 5 44 6 212
4 433 -135 562 -354 16 -27 46 -92 66 -144 39 -97 53 -112 84 -93 13 8 91 12
244 12 216 0 225 1 225 19 0 19 -10 20 -222 23 -123 2 -226 0 -229 -5 -10 -14
-36 26 -69 105 -17 42 -50 105 -73 140 -55 84 -196 223 -279 277 l-68 44 0
103 c0 98 1 103 23 107 12 2 223 5 468 6 l447 1 5 -372z m2201 330 c6 -28 16
-331 11 -326 -2 1 -13 52 -24 111 -25 131 -28 237 -6 237 8 0 17 -10 19 -22z
m402 -96 c-4 -48 -10 -91 -13 -96 -21 -33 -32 159 -12 196 21 40 32 -6 25
-100z m212 72 c2 -23 -3 -47 -12 -59 -14 -19 -15 -15 -16 43 0 47 3 63 13 60
6 -3 13 -22 15 -44z m-398 -108 c0 -88 -5 -156 -12 -173 l-11 -28 -8 45 c-9
56 -11 284 -2 293 3 4 12 7 20 7 10 0 13 -31 13 -144z m985 58 c131 -31 263
-131 331 -249 19 -33 40 -68 46 -77 28 -40 -57 -83 -151 -76 -70 5 -157 44
-282 129 -119 80 -207 110 -345 116 -89 5 -113 2 -195 -21 -166 -47 -326 -138
-504 -285 -44 -37 -127 -103 -185 -148 -58 -44 -140 -110 -184 -146 -103 -86
-305 -227 -381 -265 -86 -43 -175 -71 -285 -88 -116 -19 -751 -31 -1505 -29
l-510 2 -3 26 -3 25 958 0 c1019 -1 1033 0 1201 48 175 51 244 96 712 469 370
295 465 358 622 413 231 82 400 60 630 -80 139 -85 217 -118 282 -120 46 -1
61 3 78 19 33 33 16 67 -76 160 -83 82 -101 93 -296 182 -25 11 -22 11 45 -5z
m-1815 -21 c57 -18 144 -90 179 -146 46 -76 63 -147 61 -256 -1 -57 -7 -123
-14 -145 -7 -23 -19 -60 -26 -83 -7 -24 -20 -49 -29 -57 -14 -13 -16 -11 -18
22 -1 26 1 31 6 18 6 -16 10 -13 25 24 20 50 25 44 -81 92 -102 46 -91 63 13
21 55 -22 90 -31 96 -25 5 5 12 35 15 67 l6 57 -82 -3 c-51 -3 -80 0 -78 6 2
5 39 11 82 13 l78 3 -7 57 c-4 31 -9 66 -12 79 -6 22 -7 22 -36 7 -17 -9 -51
-31 -77 -49 -25 -18 -52 -30 -59 -28 -12 5 -11 -18 4 -65 8 -26 -10 -74 -39
-103 -33 -34 -36 -27 46 -114 43 -45 66 -108 51 -133 -6 -10 -30 -27 -55 -40
-39 -21 -55 -23 -139 -20 -82 3 -102 7 -140 30 -118 70 -199 203 -208 338 -5
91 16 207 53 285 62 129 236 196 385 148z m1494 -3 c96 -11 219 -57 282 -105
45 -35 43 -50 -3 -26 -71 35 -218 82 -287 91 -88 11 -235 -4 -284 -29 -20 -10
-91 -40 -157 -66 -66 -27 -126 -53 -134 -59 -11 -8 -13 -8 -7 2 9 16 144 84
230 116 36 14 78 34 93 45 23 18 93 34 163 40 8 0 55 -4 104 -9z m1179 -80 c3
-41 2 -54 -3 -35 -8 31 -13 112 -6 104 2 -2 6 -33 9 -69z m70 -82 c21 -11 21
-11 2 -19 -26 -10 -186 -10 -245 0 l-45 8 35 6 c33 7 85 11 188 15 24 1 53 -3
65 -10z m-5469 -71 c83 -38 172 -104 217 -160 57 -73 48 -91 -12 -24 -132 149
-295 210 -461 173 -87 -19 -155 -56 -230 -125 -31 -28 -60 -51 -64 -51 -13 0
86 98 139 137 114 84 290 105 411 50z m3592 8 c-40 -32 -157 -112 -126 -85 14
12 34 30 46 39 28 24 97 71 104 71 3 -1 -8 -11 -24 -25z m706 -54 c100 -29
185 -78 260 -152 113 -111 159 -241 160 -459 1 -83 -4 -132 -16 -174 -49 -167
-154 -300 -290 -366 -140 -69 -231 -83 -341 -55 -196 52 -363 215 -428 420
-32 101 -32 310 0 407 47 144 113 233 227 308 132 85 287 111 428 71z m-4347
-18 c65 -20 144 -73 200 -135 53 -59 148 -244 170 -333 19 -73 33 -345 18
-345 -6 0 -13 55 -16 133 -12 242 -71 392 -211 533 -106 106 -157 128 -301
129 -95 0 -104 -2 -178 -37 -137 -66 -221 -166 -342 -408 -73 -147 -131 -234
-195 -294 -74 -70 -81 -45 -7 27 69 68 113 135 178 272 104 221 192 336 312
412 106 67 247 85 372 46z m6150 -3 c78 -23 169 -28 191 -9 20 17 19 -10 -2
-40 -16 -22 -22 -23 -79 -18 -34 3 -92 17 -130 31 -90 34 -109 33 -133 -6 -29
-48 -42 -101 -49 -210 -3 -54 -10 -98 -16 -98 -13 0 -2 201 13 253 16 53 75
117 109 117 14 0 58 -9 96 -20z m-1041 -175 c59 -109 89 -175 78 -175 -4 0
-38 60 -77 132 -38 72 -80 147 -92 165 -13 19 -23 37 -23 41 1 18 65 -73 114
-163z m-1654 121 c0 -2 -8 -10 -17 -17 -16 -13 -17 -12 -4 4 13 16 21 21 21
13z m-3434 -126 c76 -33 152 -97 194 -161 59 -92 74 -170 75 -384 l0 -180 -33
-67 c-39 -80 -97 -134 -195 -183 -61 -30 -79 -35 -143 -35 -202 0 -381 157
-434 380 -18 74 -15 223 5 300 69 267 321 423 531 330z m-746 -100 c13 -9 11
-14 -14 -36 -31 -28 -59 -28 -64 -1 -8 38 42 61 78 37z m6460 -21 c47 -21 90
-56 90 -72 0 -6 -8 -3 -17 5 -10 8 -47 31 -83 51 -70 39 -64 50 10 16z m820
-149 l0 -30 -820 0 -820 0 0 30 0 30 820 0 820 0 0 -30z m-4527 -76 c41 -4 56
-9 48 -17 -12 -12 -594 -24 -963 -19 -206 3 -248 6 -248 18 0 8 1 15 3 15 26
16 1011 18 1160 3z m4426 -29 c98 -7 101 -8 101 -31 l0 -24 -528 0 c-291 0
-657 -3 -814 -7 -281 -6 -285 -6 -290 14 -8 30 3 41 42 45 75 7 1393 9 1489 3z
m-2799 -329 c40 -88 137 -205 220 -266 39 -27 70 -52 70 -55 0 -3 -472 -5
-1050 -5 -833 0 -1050 3 -1050 13 0 6 26 25 58 42 76 40 158 125 194 203 15
34 29 62 31 63 1 1 196 5 432 9 279 5 488 14 595 25 178 19 333 31 418 33 l53
2 29 -64z m1420 -48 c50 -88 160 -196 238 -232 34 -16 62 -33 62 -38 0 -4
-175 -8 -390 -8 -214 0 -390 4 -390 8 0 5 16 16 36 25 101 49 211 157 265 261
33 64 34 65 79 68 51 3 51 3 100 -84z m-3975 -24 c44 -86 146 -202 202 -230
l38 -19 -268 -3 c-147 -1 -387 -1 -535 0 l-267 3 55 36 c73 47 149 132 191
213 l34 66 205 3 c113 1 228 3 256 5 l51 2 38 -76z"/>
<path d="M7198 5963 c-44 -45 -74 -110 -83 -178 -12 -94 54 -212 130 -231 70
-18 140 32 175 124 47 125 5 268 -91 306 -63 25 -90 21 -131 -21z m82 -16 c0
-13 -12 -46 -26 -73 -15 -27 -35 -66 -46 -87 -19 -35 -21 -36 -34 -20 -7 10
-14 29 -14 44 0 23 43 102 78 142 21 24 42 21 42 -6z"/>
<path d="M7894 5976 c-65 -29 -124 -136 -124 -225 0 -82 75 -183 144 -196 71
-14 153 56 177 148 39 157 -81 324 -197 273z m9 -83 c-7 -48 -52 -133 -70
-133 -20 0 -16 50 8 90 19 32 58 80 65 80 2 0 0 -17 -3 -37z"/>
<path d="M5081 5886 c2 -2 15 -9 29 -15 24 -11 24 -11 6 3 -16 13 -49 24 -35
12z"/>
<path d="M5203 5797 c45 -46 79 -93 106 -148 47 -94 56 -88 11 6 -31 65 -100
149 -152 187 -17 11 -1 -9 35 -45z"/>
<path d="M5371 5464 c0 -11 3 -14 6 -6 3 7 2 16 -1 19 -3 4 -6 -2 -5 -13z"/>
<path d="M5382 5405 c0 -16 2 -22 5 -12 2 9 2 23 0 30 -3 6 -5 -1 -5 -18z"/>
<path d="M5392 5340 c0 -14 2 -19 5 -12 2 6 2 18 0 25 -3 6 -5 1 -5 -13z"/>
<path d="M3500 5760 l0 -33 90 5 c50 3 94 8 97 12 4 4 -1 14 -10 23 -11 11
-40 18 -96 21 l-81 5 0 -33z"/>
<path d="M2512 5754 c2 -24 7 -29 31 -28 143 3 157 4 157 18 0 19 -22 26 -113
33 l-79 6 4 -29z"/>
<path d="M4861 5722 c-38 -4 -37 6 -9 -155 10 -61 28 -91 44 -75 5 5 27 113
39 184 6 38 4 42 -17 45 -13 2 -38 3 -57 1z"/>
<path d="M4753 5704 c-18 -8 -33 -16 -33 -19 0 -3 20 -45 44 -94 28 -54 50
-88 60 -88 19 0 19 -5 6 94 -18 136 -16 134 -77 107z"/>
<path d="M4954 5701 c6 -9 -18 -149 -34 -193 -17 -53 26 -22 89 64 42 56 71
79 71 55 -1 -7 -28 -43 -60 -81 -63 -73 -69 -86 -46 -105 11 -9 31 -2 91 30
42 23 79 48 82 55 6 16 -35 90 -63 116 -19 16 -116 68 -129 68 -3 0 -4 -4 -1
-9z"/>
<path d="M4662 5647 c-29 -31 -28 -37 14 -78 20 -18 45 -47 57 -64 11 -17 -8
-3 -45 33 -37 34 -69 62 -72 62 -10 0 -36 -59 -36 -82 0 -27 15 -38 100 -72
l62 -25 19 22 c22 27 22 24 6 78 -20 66 -60 149 -73 149 -6 0 -20 -10 -32 -23z"/>
<path d="M4565 5443 c-4 -21 -9 -50 -11 -64 -5 -28 12 -147 25 -167 5 -8 26
-4 76 17 39 16 74 26 79 23 5 -3 -25 -19 -68 -35 -74 -28 -77 -31 -71 -55 10
-40 40 -77 116 -142 82 -71 109 -77 109 -25 0 49 32 187 41 178 4 -4 1 -37 -6
-72 -8 -35 -15 -82 -17 -105 l-3 -41 58 -3 c33 -2 57 1 57 7 0 20 -32 145 -41
164 -6 10 -8 21 -6 24 9 8 33 -48 52 -120 10 -37 22 -70 27 -73 16 -10 78 37
78 60 0 27 -46 101 -89 140 -17 17 -31 36 -31 43 0 10 -6 10 -27 2 -92 -35
-216 76 -197 175 6 35 6 35 -65 70 -39 20 -73 36 -75 36 -3 0 -8 -17 -11 -37z
m124 -109 c2 -2 -21 -4 -52 -4 -31 0 -58 4 -62 9 -5 9 104 3 114 -5z m82 -219
c-39 -89 -51 -108 -51 -84 0 26 65 169 77 169 7 0 -3 -34 -26 -85z"/>
<path d="M4798 5458 c-19 -16 -48 -59 -48 -73 0 -5 8 3 19 18 27 42 56 59 86
51 75 -19 93 -176 21 -182 -32 -2 -34 6 -3 17 20 8 20 10 4 16 -9 4 -29 4 -45
0 -25 -6 -26 -8 -9 -20 14 -10 15 -15 6 -21 -8 -5 -25 7 -46 32 -18 21 -33 34
-33 27 0 -20 48 -70 80 -83 37 -15 89 -6 125 22 24 19 27 26 22 64 -6 53 -38
99 -87 124 -45 23 -70 25 -92 8z"/>
<path d="M6280 5314 c-218 -79 -339 -323 -285 -577 18 -85 52 -148 116 -215
96 -100 192 -138 326 -130 173 11 328 156 373 347 8 35 11 92 8 163 -5 100 -9
116 -41 181 -44 88 -130 177 -207 214 -71 34 -218 43 -290 17z m260 -74 c63
-32 151 -125 186 -195 27 -56 29 -68 29 -180 0 -109 -3 -126 -29 -190 -31 -77
-78 -133 -143 -172 -61 -35 -76 -23 -20 16 26 17 47 34 47 37 0 11 -70 111
-90 129 -11 10 -20 25 -20 34 1 11 8 7 27 -14 14 -16 43 -49 64 -73 24 -27 36
-49 33 -60 -8 -26 49 43 74 89 24 45 26 53 13 45 -9 -6 -135 47 -158 66 -24
20 -1 28 25 10 38 -26 141 -62 148 -51 2 5 8 31 11 58 7 58 6 59 -112 64 -62
3 -59 3 24 5 l94 2 -5 64 c-9 103 -11 104 -102 45 -75 -48 -103 -57 -76 -24 7
8 16 15 21 15 5 0 36 17 69 37 49 31 59 42 54 58 -7 24 -52 85 -62 85 -4 0
-32 -34 -61 -75 -30 -41 -61 -75 -68 -75 -9 0 -7 -10 7 -32 29 -48 28 -144 -2
-188 -26 -37 -100 -67 -140 -56 -48 12 -87 45 -109 94 -22 48 -24 49 -58 45
-20 -2 -56 0 -81 5 -43 9 -41 10 36 11 79 1 82 2 86 26 3 15 -1 30 -11 39 -14
13 -123 66 -135 66 -10 0 -26 -97 -25 -152 1 -78 11 -114 30 -109 45 12 137
30 154 30 36 1 -5 -17 -82 -36 -68 -15 -73 -19 -73 -43 0 -16 12 -37 31 -56
l31 -29 17 25 c9 14 33 43 55 65 l39 40 -32 -39 c-18 -21 -40 -54 -49 -72 -15
-33 -15 -35 8 -59 28 -30 96 -71 132 -80 24 -6 25 -5 37 69 7 42 9 90 6 107
-5 24 -4 30 5 24 10 -6 11 -34 7 -112 l-6 -104 42 3 42 3 3 45 c1 25 -4 79
-11 120 -11 55 -11 70 -3 57 7 -9 18 -49 25 -89 7 -40 14 -85 17 -99 8 -42
-17 -59 -88 -59 -120 0 -263 94 -320 212 -43 86 -54 178 -34 274 32 159 115
269 237 314 72 27 176 22 239 -10z m-225 -598 c-14 -34 -25 -70 -25 -81 0 -11
-4 -23 -10 -26 -18 -11 -10 43 16 115 15 40 31 67 35 63 5 -5 -2 -36 -16 -71z"/>
<path d="M6393 5223 c4 -15 12 -68 19 -116 17 -121 34 -115 63 20 25 114 29
105 -49 118 -38 6 -39 6 -33 -22z"/>
<path d="M6298 5223 c-21 -9 -38 -19 -38 -23 0 -4 15 -33 34 -63 18 -31 39
-70 46 -87 9 -22 19 -30 38 -30 l25 0 -6 73 c-9 99 -24 147 -45 146 -9 -1 -34
-8 -54 -16z"/>
<path d="M6495 5126 c-11 -55 -19 -105 -20 -111 -1 -27 31 -3 85 65 l59 75
-26 27 c-14 15 -38 31 -52 36 l-27 10 -19 -102z"/>
<path d="M6200 5170 c-11 -11 -20 -23 -20 -27 1 -5 30 -39 65 -77 45 -49 68
-67 80 -62 9 3 15 9 13 14 -24 55 -96 172 -105 172 -7 0 -22 -9 -33 -20z"/>
<path d="M6132 5081 c-25 -43 -28 -71 -9 -71 6 0 41 -14 76 -30 65 -31 95 -33
89 -5 -4 21 -110 144 -124 144 -6 1 -20 -16 -32 -38z"/>
<path d="M6377 4969 c35 -10 80 -58 89 -94 6 -24 -15 -79 -28 -76 -5 0 -8 3
-8 6 1 19 -27 32 -54 24 -26 -8 -35 -5 -65 24 l-34 32 24 -45 c47 -87 126
-114 180 -61 31 32 39 84 19 135 -13 36 -67 66 -115 65 l-40 -1 32 -9z"/>
<path d="M1986 5144 c-80 -29 -138 -85 -192 -187 -32 -62 -37 -79 -41 -165 -5
-82 -2 -107 17 -161 66 -195 244 -308 401 -257 74 24 131 67 167 123 36 58 79
174 88 240 19 146 -76 336 -198 397 -43 21 -65 26 -127 25 -42 0 -94 -7 -115
-15z m224 -60 c33 -16 84 -71 104 -111 27 -54 18 -50 -16 7 -44 73 -96 100
-190 100 -38 0 -84 -7 -104 -15 l-35 -15 29 -37 c16 -21 38 -57 48 -81 16 -35
23 -41 42 -37 45 11 102 -36 102 -84 0 -28 5 -26 75 22 35 25 62 52 66 67 7
24 7 23 8 -6 1 -27 -6 -36 -56 -71 -32 -21 -63 -50 -70 -63 -11 -23 -13 -23
-14 -5 -1 11 -7 -7 -14 -40 l-13 -60 -1 66 c-1 84 -29 132 -79 137 -39 4 -39
1 -7 -34 35 -38 32 -51 -21 -77 -45 -21 -46 -22 -60 -3 -21 30 -17 57 14 89
27 30 14 28 -22 -2 -17 -15 -18 -15 -12 5 4 15 -6 34 -40 75 -26 29 -50 55
-54 57 -7 3 -50 -88 -50 -107 0 -6 13 -11 30 -11 16 0 48 -8 70 -17 33 -15 40
-23 40 -46 0 -15 12 -45 26 -67 22 -34 32 -40 61 -40 19 0 47 7 63 15 27 14
30 14 30 0 0 -14 -34 -34 -82 -49 -10 -3 -20 -24 -27 -58 -7 -29 -20 -67 -31
-85 -19 -32 -19 -33 3 -48 12 -8 29 -15 37 -15 9 0 21 -5 27 -11 6 -6 21 -8
33 -4 19 6 21 12 16 43 -5 35 -5 35 5 9 7 -18 17 -27 28 -25 17 4 19 24 8 93
-6 37 -6 38 4 10 6 -16 14 -43 17 -59 l7 -29 32 27 33 27 -35 36 c-19 20 -32
39 -29 42 3 3 20 -11 38 -32 30 -35 32 -37 49 -20 13 13 17 14 17 4 0 -20 -87
-98 -136 -121 -22 -11 -54 -20 -70 -20 -72 0 -214 101 -254 181 -26 50 -44
161 -36 221 20 149 111 264 228 287 51 10 133 3 168 -15z m-72 -79 l0 -30 -8
30 c-4 17 -8 39 -8 50 l-1 20 9 -20 c5 -11 8 -33 8 -50z m-60 -5 l0 -25 -8 25
c-4 14 -8 34 -8 45 l-1 20 9 -20 c5 -11 8 -31 8 -45z m118 0 c-9 -22 -16 -54
-16 -70 0 -17 -4 -30 -10 -30 -5 0 -10 9 -10 19 0 24 41 133 48 127 2 -3 -3
-23 -12 -46z m-66 -80 c-19 -12 -19 -10 -13 25 6 29 6 29 16 6 8 -17 7 -25 -3
-31z m105 -25 c-15 -25 -31 -45 -36 -45 -17 0 -9 35 11 48 11 7 20 23 20 36 0
13 6 26 13 29 22 7 19 -21 -8 -68z m-138 23 c-3 -8 -6 -5 -6 6 -1 11 2 17 5
13 3 -3 4 -12 1 -19z m279 -176 c-7 -11 -136 -36 -144 -28 -7 7 14 13 73 20
27 4 54 11 59 16 12 12 21 5 12 -8z m-31 -102 c-22 -67 -30 -59 -9 9 8 29 18
51 21 48 3 -3 -3 -29 -12 -57z m-175 -8 c0 -4 -17 -6 -37 -4 -65 6 -70 10 -15
11 28 0 52 -3 52 -7z m-46 -72 c4 -31 3 -40 -4 -30 -5 8 -10 30 -10 49 0 45 6
37 14 -19z"/>
<path d="M1926 5015 c-31 -28 -33 -41 -8 -54 10 -5 31 -28 46 -50 25 -35 32
-40 55 -34 35 8 37 10 19 30 -8 10 -28 44 -44 76 -15 31 -31 57 -35 57 -3 0
-18 -11 -33 -25z"/>
<path d="M1837 4825 c-8 -19 -9 -85 -2 -85 2 0 29 9 60 21 40 15 55 26 55 39
0 24 -8 29 -63 36 -36 5 -45 3 -50 -11z"/>
<path d="M1930 4759 c-8 -5 -32 -16 -52 -24 -33 -13 -38 -19 -38 -48 0 -18 6
-41 13 -50 11 -15 16 -13 60 24 36 31 47 47 47 69 0 33 -9 41 -30 29z"/>
<path d="M1917 4645 c-40 -37 -46 -47 -38 -63 25 -47 37 -45 70 8 17 27 36 50
41 50 12 0 9 -6 -33 -69 -34 -49 -29 -74 15 -79 21 -3 28 4 46 45 32 76 31 96
-5 127 -17 14 -35 26 -39 26 -5 -1 -31 -21 -57 -45z"/>
<path d="M5828 4443 c7 -3 16 -2 19 1 4 3 -2 6 -13 5 -11 0 -14 -3 -6 -6z"/>
<path d="M6365 6800 c-357 -3 -628 -8 -601 -12 27 -5 352 -8 723 -8 535 0 674
3 671 13 -5 15 38 14 -793 7z"/>
<path d="M6987 6673 c-4 -4 -255 -7 -557 -8 -303 -1 -553 -5 -557 -8 -3 -4
303 -7 682 -7 610 0 686 2 675 15 -10 12 -37 15 -125 15 -61 0 -115 -3 -118
-7z"/>
<path d="M6010 6523 c471 -7 1150 -7 1150 0 0 4 -300 6 -667 5 -368 -2 -585
-4 -483 -5z"/>
<path d="M6105 6400 c-310 -5 -263 -6 334 -8 382 -1 692 0 689 3 -8 8 -631 12
-1023 5z"/>
<path d="M8254 3961 c-78 -20 -141 -107 -131 -182 11 -81 84 -142 169 -143 38
0 55 6 85 30 57 46 76 78 77 126 1 111 -97 195 -200 169z m129 -70 c39 -36 42
-44 42 -90 0 -118 -125 -179 -220 -107 -66 50 -68 157 -4 210 25 21 41 26 85
26 50 0 59 -4 97 -39z"/>
<path d="M8235 3874 c-8 -3 -11 -82 -6 -146 2 -16 17 -7 26 14 13 29 38 34 59
13 25 -26 44 -11 51 39 8 53 2 76 -21 76 -13 0 -15 -7 -9 -39 7 -44 -8 -63
-25 -31 -11 20 -13 21 -36 5 -25 -16 -25 -16 -22 12 3 24 7 28 31 25 19 -2 27
2 27 13 0 8 -9 15 -19 15 -11 0 -25 2 -33 4 -7 3 -18 2 -23 0z"/>
<path d="M7325 3948 c-146 -15 -260 -72 -370 -182 -110 -111 -185 -282 -185
-420 1 -193 113 -394 282 -504 79 -51 148 -76 277 -97 84 -14 113 -15 188 -5
226 30 401 154 498 355 53 110 70 189 62 298 -19 259 -208 486 -453 543 -80
18 -199 23 -299 12z m220 -109 c175 -82 278 -332 246 -594 -23 -185 -110 -329
-236 -387 -71 -32 -191 -32 -255 1 -107 56 -204 201 -236 351 -21 99 -14 272
14 351 53 150 126 234 249 285 69 30 146 27 218 -7z"/>
<path d="M4980 3938 c-113 -5 -339 -6 -502 -3 l-297 6 -7 -48 c-6 -41 -48
-195 -70 -258 -4 -11 26 14 67 55 94 96 121 108 252 116 l104 7 7 -49 c3 -27
9 -225 13 -439 4 -296 3 -400 -6 -428 -8 -22 -32 -54 -64 -82 -28 -24 -48 -47
-45 -50 3 -3 126 -4 274 -3 l269 3 -54 34 c-87 56 -91 69 -91 367 0 138 3 340
7 449 l6 197 85 -6 c47 -4 98 -14 112 -21 59 -31 170 -182 170 -232 0 -7 5
-13 10 -13 7 0 9 21 6 58 -3 31 -8 123 -12 205 -4 102 -10 147 -18 145 -6 0
-103 -5 -216 -10z"/>
<path d="M1471 3924 c-80 -21 -145 -60 -206 -125 -79 -83 -110 -154 -109 -249
0 -88 22 -146 80 -209 51 -58 100 -81 169 -81 127 0 206 90 163 185 -14 31
-28 32 -28 2 0 -52 -68 -96 -129 -82 -29 6 -80 53 -100 92 -17 34 -13 103 10
153 53 117 202 200 359 200 l37 0 6 -297 c3 -164 5 -478 4 -698 -2 -399 -2
-400 -25 -437 -32 -52 -73 -83 -132 -103 -27 -9 -50 -21 -50 -26 0 -10 487
-12 594 -2 l69 6 -56 29 c-66 33 -101 78 -117 152 -7 34 -10 263 -9 713 l1
663 102 0 c128 0 188 -17 249 -70 89 -79 129 -207 107 -344 -27 -170 -120
-253 -297 -264 -83 -5 -83 -5 -83 -32 0 -15 7 -33 16 -41 34 -28 148 -217 277
-461 154 -292 281 -491 379 -594 132 -138 338 -262 509 -305 106 -27 265 -24
317 7 19 10 48 27 65 36 l32 18 -66 0 c-106 0 -177 18 -283 73 -84 43 -116 67
-196 146 -53 53 -113 116 -133 142 -55 68 -158 242 -269 454 -156 296 -215
399 -260 449 -22 26 -39 48 -37 50 2 2 38 21 79 42 169 87 261 244 248 424
-13 179 -156 331 -363 385 -84 21 -842 21 -924 -1z"/>
<path d="M3000 3920 c14 -11 29 -20 34 -20 5 0 24 -11 43 -26 64 -49 63 -37
63 -527 l0 -444 -30 -41 c-16 -23 -48 -51 -70 -64 -22 -13 -40 -26 -40 -30 0
-5 214 -8 475 -8 261 0 478 -1 482 -1 11 -2 19 17 53 131 17 58 44 145 60 193
16 49 25 87 20 85 -4 -2 -48 -46 -97 -99 -107 -115 -151 -155 -187 -169 -15
-5 -111 -10 -218 -10 l-190 0 3 199 4 199 111 6 c155 10 186 1 215 -64 12 -28
26 -50 29 -50 10 0 23 301 14 323 -11 29 -30 19 -43 -23 -19 -64 -36 -70 -193
-70 l-138 0 0 58 c0 31 3 121 7 200 l6 142 141 0 c78 0 158 -5 179 -11 52 -14
173 -129 204 -194 l25 -50 -6 46 c-3 25 -8 112 -12 192 l-7 147 -481 0 c-479
0 -481 -1 -456 -20z"/>
<path d="M5396 3928 c3 -5 28 -20 55 -33 31 -16 59 -41 76 -67 l28 -42 -2
-435 -3 -435 -26 -38 c-15 -21 -29 -38 -33 -38 -3 0 -26 -18 -51 -40 l-45 -39
283 -1 c258 0 327 6 257 24 -40 10 -104 74 -114 115 -8 30 -9 357 -3 804 l2
107 100 0 c114 0 149 -11 197 -60 49 -51 67 -106 61 -195 -4 -64 -10 -82 -38
-123 -50 -74 -89 -96 -177 -100 -40 -3 -73 -8 -73 -13 0 -5 15 -26 33 -46 46
-53 144 -209 207 -331 30 -56 70 -120 89 -141 36 -38 36 -38 136 -45 179 -12
391 8 442 42 7 4 -29 8 -80 8 -70 0 -100 4 -126 18 -63 34 -124 101 -207 226
-45 69 -100 150 -122 180 l-40 54 40 18 c54 24 154 127 180 185 31 68 30 171
0 238 -29 63 -93 129 -156 162 -94 48 -156 54 -541 51 -194 -1 -351 -6 -349
-10z"/>
<path d="M3294 2568 c-107 -72 -134 -183 -66 -271 76 -98 184 -115 285 -43
l47 34 -37 22 c-35 21 -39 21 -65 6 -48 -29 -94 -24 -133 14 -47 46 -48 94 -4
145 17 19 41 38 53 41 27 6 75 -11 92 -34 11 -15 15 -13 48 18 l35 35 -51 32
c-73 46 -136 46 -204 1z"/>
<path d="M3837 2563 c-21 -50 -97 -224 -129 -293 l-26 -55 40 -3 c54 -4 65 1
73 37 l7 31 88 0 88 0 12 -35 c11 -34 13 -35 61 -35 27 0 49 2 49 5 0 5 -74
173 -120 272 -16 34 -32 73 -36 87 -5 23 -11 26 -49 26 -40 0 -44 -2 -58 -37z
m81 -155 l21 -48 -50 0 c-27 0 -49 3 -49 6 0 18 44 104 50 97 4 -4 17 -29 28
-55z"/>
<path d="M4265 2403 l0 -193 48 0 47 0 0 56 0 57 33 -7 c31 -6 43 -16 97 -83
24 -29 27 -30 80 -24 35 4 50 9 42 14 -7 5 -31 32 -53 60 -39 49 -40 51 -20
59 32 11 61 67 61 115 0 35 -7 50 -36 82 -46 52 -78 61 -199 58 l-100 -2 0
-192z m219 94 c21 -16 24 -60 6 -82 -8 -10 -31 -15 -71 -15 l-59 0 0 55 0 55
53 0 c29 0 61 -6 71 -13z"/>
<path d="M5060 2425 c0 -93 3 -179 6 -190 4 -16 14 -20 46 -20 l41 0 1 45 c1
35 5 45 19 48 37 7 67 -9 97 -53 31 -45 31 -45 91 -45 l61 0 -46 52 c-25 29
-46 56 -46 60 0 5 14 21 31 36 32 29 53 92 42 127 -3 11 -14 31 -25 44 -39 50
-56 56 -191 61 l-127 5 0 -170z m220 72 c30 -15 38 -58 15 -81 -12 -11 -35
-16 -81 -16 l-64 0 0 55 0 55 53 0 c28 0 63 -6 77 -13z"/>
<path d="M5590 2405 l0 -190 150 -1 151 -1 -3 41 -3 41 -102 3 -103 3 0 35 0
36 78 -3 77 -4 3 38 3 37 -80 0 -81 0 0 34 c0 30 4 34 31 40 17 3 64 6 103 6
l71 0 0 41 0 40 -147 -3 -148 -3 0 -190z"/>
<path d="M6090 2405 l0 -195 40 0 40 0 1 83 c1 45 4 93 8 106 7 25 7 24 43
-20 20 -24 60 -72 88 -107 34 -42 57 -61 67 -58 8 3 26 6 39 6 l24 0 0 190 0
190 -45 0 -45 0 0 -103 c0 -57 -3 -107 -7 -110 -3 -4 -20 12 -37 36 -17 24
-58 73 -90 110 -51 57 -64 67 -93 67 l-33 0 0 -195z"/>
<path d="M6630 2553 l0 -48 60 3 61 4 -3 -140 c-2 -77 -1 -142 2 -145 3 -3 25
-7 49 -8 l45 -4 -3 148 -3 147 56 0 56 0 0 45 0 45 -160 0 -160 0 0 -47z"/>
<path d="M7431 2393 c1 -49 3 -61 9 -43 4 14 8 38 9 53 1 15 7 30 15 33 19 7
56 -13 56 -31 0 -18 -46 -20 -53 -2 -3 6 -5 -6 -5 -28 0 -22 2 -32 5 -22 7 25
34 21 58 -9 l20 -25 -5 68 -5 68 -52 3 -53 3 1 -68z"/>
<path d="M7616 2444 c-14 -36 -6 -85 19 -109 26 -27 40 -31 50 -15 3 6 -1 10
-10 10 -8 0 -18 8 -22 18 -3 9 -13 25 -21 35 -23 27 -2 43 37 29 25 -9 31 -8
31 3 0 17 -38 45 -61 45 -9 0 -20 -7 -23 -16z"/>
<path d="M7772 2388 c2 -46 7 -73 16 -76 7 -2 12 6 12 22 0 28 27 37 36 12 7
-18 54 -50 61 -42 4 3 -2 15 -11 25 -14 15 -15 24 -7 40 6 11 11 31 11 46 0
29 -30 45 -86 45 l-35 0 3 -72z m82 46 c26 -10 18 -31 -14 -43 -28 -9 -30 -8
-30 13 0 34 12 42 44 30z"/>
<path d="M7273 2422 c-20 -2 -37 -11 -43 -22 -13 -24 -3 -30 65 -37 l55 -6 0
30 c0 34 -16 41 -77 35z"/>
<path d="M3680 2004 c0 -5 7 -31 15 -59 9 -27 20 -66 25 -87 9 -33 13 -36 36
-29 20 5 32 22 54 75 16 38 27 73 24 77 -10 17 -34 9 -34 -10 0 -20 -31 -81
-41 -81 -3 0 -11 17 -17 38 -11 35 -62 98 -62 76z"/>
<path d="M4170 1910 c0 -73 3 -90 15 -90 12 0 15 13 15 56 l0 56 53 -58 52
-57 7 49 c12 89 9 134 -7 134 -11 0 -15 -12 -15 -50 0 -54 -9 -62 -33 -27 -23
35 -65 77 -77 77 -6 0 -10 -34 -10 -90z"/>
<path d="M4402 1983 c2 -11 14 -19 31 -21 27 -3 27 -4 27 -73 0 -52 3 -70 13
-67 7 3 13 29 15 71 3 59 5 66 25 69 12 2 22 10 22 18 0 12 -16 16 -68 18 -62
3 -68 1 -65 -15z"/>
<path d="M4854 1975 c-38 -30 -45 -53 -28 -93 14 -34 59 -62 99 -62 58 0 90
81 38 101 -14 5 -33 7 -41 4 -13 -5 -12 -8 2 -23 9 -10 16 -24 16 -30 0 -19
-45 -14 -63 6 -39 43 -6 88 59 80 38 -4 47 14 15 32 -32 16 -64 12 -97 -15z"/>
<path d="M5090 1911 l0 -89 61 -1 c51 0 60 2 55 15 -3 9 -6 18 -6 20 0 2 -16
4 -35 4 -28 0 -35 4 -35 20 0 16 7 20 30 20 20 0 30 5 30 15 0 10 -10 15 -30
15 -20 0 -30 5 -30 15 0 11 11 15 40 15 28 0 40 4 40 14 0 18 -22 26 -76 26
l-44 0 0 -89z"/>
<path d="M5690 1908 l0 -88 53 0 c30 0 57 3 60 7 13 12 -15 33 -44 33 -19 0
-29 5 -29 15 0 10 11 15 35 15 29 0 35 4 35 21 0 18 -5 20 -37 17 -30 -2 -38
1 -41 16 -3 16 2 18 42 15 41 -4 46 -2 46 16 0 18 -7 20 -60 20 l-60 0 0 -87z"/>
<path d="M5923 1993 c-9 -3 -13 -31 -13 -90 0 -75 2 -84 18 -81 11 2 19 15 22
38 l5 34 37 -39 c41 -44 58 -42 34 4 -15 29 -15 31 4 41 13 7 20 21 20 41 0
25 -6 33 -35 45 -34 14 -69 17 -92 7z m87 -47 c0 -7 -7 -19 -15 -26 -12 -10
-18 -10 -30 0 -25 21 -18 40 15 40 19 0 30 -5 30 -14z"/>
<path d="M6144 1978 c3 -13 6 -52 6 -88 l0 -65 57 1 c46 0 59 4 61 17 3 14 -5
17 -42 17 -39 0 -46 3 -46 19 0 16 8 20 37 23 52 4 56 28 4 28 -30 0 -41 4
-41 15 0 11 12 15 45 15 38 0 45 3 45 20 0 18 -7 20 -66 20 -64 0 -66 -1 -60
-22z"/>
<path d="M3946 1953 c-3 -21 -6 -60 -6 -86 l0 -48 58 3 c43 2 57 7 57 18 0 10
-13 16 -42 18 -24 2 -43 5 -43 7 0 19 16 35 35 35 34 0 55 10 55 27 0 11 -10
14 -42 11 -27 -2 -43 1 -45 10 -3 8 10 12 46 12 39 0 51 4 51 15 0 12 -13 15
-59 15 l-58 0 -7 -37z"/>
<path d="M4626 1914 c-20 -42 -36 -80 -36 -85 0 -15 19 -10 40 11 12 12 33 20
54 20 26 0 36 -5 41 -20 5 -17 35 -30 35 -15 0 14 -81 165 -89 165 -5 0 -25
-34 -45 -76z m49 -22 c-22 -5 -27 1 -19 23 7 17 8 17 21 -1 12 -17 12 -19 -2
-22z"/>
<path d="M5432 1910 c3 -68 6 -80 21 -80 12 0 17 8 17 29 0 21 6 30 23 35 48
13 57 8 57 -29 0 -28 4 -35 20 -35 18 0 20 7 20 80 0 72 -2 80 -19 80 -14 0
-21 -8 -23 -27 -3 -24 -8 -28 -40 -31 -36 -3 -38 -2 -38 27 0 25 -4 31 -21 31
-19 0 -20 -5 -17 -80z"/>
<path d="M6470 1889 c0 -20 3 -21 153 -15 195 7 187 6 187 15 0 4 46 9 102 10
56 1 104 4 107 6 2 3 -120 5 -272 5 -274 0 -277 0 -277 -21z"/>
<path d="M7123 1903 c15 -2 39 -2 55 0 15 2 2 4 -28 4 -30 0 -43 -2 -27 -4z"/>
<path d="M7271 1905 c8 -8 219 -10 219 -2 0 4 -50 7 -112 7 -61 0 -109 -2
-107 -5z"/>
<path d="M2645 1891 c19 -8 18 -9 -5 -13 -21 -4 -20 -5 8 -7 39 -1 40 23 1 26
-22 2 -22 2 -4 -6z"/>
<path d="M7428 1873 c6 -2 18 -2 25 0 6 3 1 5 -13 5 -14 0 -19 -2 -12 -5z"/>
<path d="M4765 1605 c-33 -32 -33 -74 0 -105 22 -21 29 -22 45 -12 34 21 22
-4 -15 -32 -40 -31 -45 -52 -14 -61 29 -10 68 21 98 76 32 60 24 111 -22 139
-42 26 -63 25 -92 -5z m63 -27 c15 -15 16 -54 2 -63 -22 -13 -50 6 -50 34 0
41 22 55 48 29z"/>
<path d="M5010 1610 c-19 -19 -28 -60 -12 -60 4 0 17 -8 30 -18 l23 -18 -31
-39 c-28 -35 -37 -76 -17 -75 4 0 34 0 67 0 52 0 60 2 60 19 0 20 -18 31 -52
31 -18 0 -15 6 21 45 47 51 51 76 16 110 -30 31 -77 33 -105 5z m78 -46 c2
-11 -4 -27 -14 -34 -14 -12 -18 -12 -30 4 -10 14 -10 24 -3 38 13 24 43 19 47
-8z"/>
<path d="M5250 1603 c-16 -21 -20 -37 -16 -62 8 -51 31 -71 69 -60 33 9 43 6
32 -10 -3 -6 -22 -11 -41 -11 -26 0 -34 -4 -34 -18 0 -47 54 -56 94 -16 35 35
48 88 36 136 -19 70 -99 93 -140 41z m88 -65 c3 -33 0 -38 -18 -38 -23 0 -46
40 -36 65 3 10 15 15 28 13 19 -2 24 -10 26 -40z"/>
<path d="M4578 1603 c-2 -10 -2 -60 0 -110 4 -83 6 -93 23 -93 18 0 19 9 19
110 0 101 -2 110 -19 110 -10 0 -21 -8 -23 -17z"/>
</g>
</svg>
