<?xml version="1.0" standalone="no"?>
<!DOCTYPE svg PUBLIC "-//W3C//DTD SVG 20010904//EN"
 "http://www.w3.org/TR/2001/REC-SVG-20010904/DTD/svg10.dtd">
<svg version="1.0" xmlns="http://www.w3.org/2000/svg"
 width="298.000000pt" height="115.000000pt" viewBox="0 0 298.000000 115.000000"
 preserveAspectRatio="xMidYMid meet">

<g transform="translate(0.000000,115.000000) scale(0.100000,-0.100000)"
fill="#000000" stroke="none">
<path d="M1382 1009 c-158 -31 -278 -153 -312 -316 -17 -82 -8 -225 19 -296
65 -166 218 -255 426 -245 74 4 103 10 163 37 40 18 81 31 90 29 9 -2 24 -18
32 -35 8 -18 18 -33 23 -33 4 0 7 74 7 165 0 101 -4 165 -10 165 -5 0 -12 -12
-16 -27 -43 -196 -109 -268 -244 -267 -78 1 -113 17 -166 77 -49 56 -72 119
-85 233 -24 222 39 412 155 465 58 26 140 25 196 -3 74 -38 114 -105 144 -240
4 -16 11 -28 16 -28 6 0 10 64 10 165 0 91 -2 165 -4 165 -2 0 -13 -16 -25
-35 -25 -43 -52 -45 -119 -11 -85 42 -196 56 -300 35z"/>
<path d="M140 987 c0 -11 11 -17 37 -19 62 -5 63 -10 63 -393 0 -378 0 -377
-65 -389 -19 -4 -35 -11 -35 -16 0 -6 85 -10 215 -10 118 0 215 4 215 8 0 5
-18 14 -40 21 -34 10 -41 17 -50 51 -6 22 -9 101 -8 177 l3 138 53 0 c75 -1
98 -27 117 -130 29 -155 36 -179 55 -211 29 -46 74 -64 162 -64 59 0 84 5 118
23 56 29 64 48 17 40 -50 -8 -63 14 -107 185 -22 84 -128 162 -222 162 -43 0
-32 7 36 25 115 30 175 78 196 157 22 78 -11 162 -79 202 -66 38 -135 47 -413
53 -239 5 -268 4 -268 -10z m486 -35 c40 -31 57 -82 58 -162 0 -90 -14 -137
-54 -175 -26 -25 -40 -30 -95 -33 l-65 -4 0 196 0 196 68 0 c48 0 73 -5 88
-18z"/>
<path d="M1948 995 c-13 -13 2 -25 32 -25 59 0 60 -8 60 -396 0 -390 3 -374
-67 -389 -81 -17 -19 -25 187 -25 204 0 269 9 185 24 -63 12 -65 19 -65 207
l0 169 34 0 c52 0 95 -20 111 -50 8 -15 22 -72 31 -126 32 -192 61 -227 194
-232 73 -3 91 0 130 20 50 26 67 53 27 43 -44 -11 -65 10 -87 88 -56 193 -93
233 -235 256 -47 7 -48 8 -20 15 119 30 137 38 184 84 38 36 50 57 56 90 20
121 -35 194 -175 229 -61 16 -570 31 -582 18z m478 -41 c44 -29 58 -70 58
-169 1 -97 -10 -130 -58 -174 -20 -19 -40 -26 -86 -29 l-60 -4 0 196 0 196 60
0 c40 0 70 -6 86 -16z"/>
</g>
</svg>
