<?xml version="1.0" standalone="no"?>
<!DOCTYPE svg PUBLIC "-//W3C//DTD SVG 20010904//EN"
 "http://www.w3.org/TR/2001/REC-SVG-20010904/DTD/svg10.dtd">
<svg version="1.0" xmlns="http://www.w3.org/2000/svg"
 width="753.000000pt" height="280.000000pt" viewBox="0 0 753.000000 280.000000"
 preserveAspectRatio="xMidYMid meet">

<g transform="translate(0.000000,280.000000) scale(0.100000,-0.100000)"
fill="#000000" stroke="none">
<path d="M7184 2701 c-68 -17 -134 -98 -134 -164 0 -94 106 -179 199 -161 17
4 51 24 76 46 72 63 80 139 24 219 -37 52 -101 76 -165 60z m129 -70 c39 -36
42 -44 42 -90 0 -118 -125 -179 -220 -107 -66 50 -68 157 -4 210 25 21 41 26
85 26 50 0 59 -4 97 -39z"/>
<path d="M7156 2548 c2 -35 3 -69 4 -75 0 -21 14 -15 25 9 13 29 38 34 59 13
25 -26 44 -11 51 39 8 53 2 76 -21 76 -13 0 -15 -7 -9 -39 7 -44 -8 -63 -25
-31 -11 20 -13 21 -36 5 -25 -16 -25 -16 -22 12 3 24 7 28 31 25 19 -2 27 2
27 13 0 11 -11 15 -43 15 l-43 0 2 -62z"/>
<path d="M6255 2688 c-146 -15 -260 -72 -370 -182 -110 -111 -185 -282 -185
-420 1 -193 113 -394 282 -504 79 -51 148 -76 277 -97 84 -14 113 -15 188 -5
160 21 306 97 408 212 61 70 131 214 146 302 52 303 -152 613 -447 682 -80 18
-199 23 -299 12z m220 -109 c175 -82 279 -335 246 -599 -23 -181 -112 -325
-236 -382 -71 -32 -191 -32 -255 1 -107 56 -204 201 -236 351 -21 99 -14 272
14 351 53 150 126 234 249 285 69 30 146 27 218 -7z"/>
<path d="M3910 2678 c-113 -5 -339 -6 -502 -3 l-297 5 -7 -47 c-6 -41 -48
-195 -70 -258 -4 -11 26 14 67 55 94 96 121 108 252 116 l104 7 7 -49 c3 -27
9 -225 13 -439 4 -296 3 -400 -6 -428 -8 -22 -32 -54 -64 -82 -28 -24 -48 -47
-45 -50 3 -3 126 -4 274 -3 l269 3 -54 34 c-87 56 -91 69 -91 367 0 138 3 340
7 449 l6 197 85 -6 c47 -4 98 -14 112 -21 59 -31 170 -182 170 -232 0 -7 5
-13 10 -13 7 0 9 21 6 58 -3 31 -8 123 -12 205 -4 102 -10 147 -18 145 -6 0
-103 -5 -216 -10z"/>
<path d="M401 2664 c-30 -8 -76 -26 -102 -41 -66 -36 -154 -130 -187 -200 -67
-144 -6 -334 129 -404 78 -40 198 -17 248 47 27 34 28 94 1 125 l-19 24 -1
-25 c0 -55 -67 -99 -129 -85 -29 6 -80 53 -100 92 -17 34 -13 103 10 153 53
117 202 200 359 200 l37 0 5 -292 c4 -161 5 -475 5 -698 -2 -404 -2 -405 -25
-442 -32 -52 -73 -83 -132 -103 -27 -9 -50 -21 -50 -26 0 -10 487 -12 594 -2
l69 6 -56 29 c-66 33 -101 78 -117 152 -7 34 -10 263 -9 713 l1 663 102 0
c128 0 188 -17 249 -70 89 -79 129 -207 107 -344 -27 -170 -120 -253 -297
-264 -83 -5 -83 -5 -83 -32 0 -15 7 -33 16 -41 34 -28 148 -217 277 -461 154
-292 281 -491 379 -594 132 -138 338 -262 509 -305 106 -27 265 -24 317 7 19
10 48 27 65 36 l32 18 -66 0 c-106 0 -177 18 -283 73 -84 43 -116 67 -196 146
-53 53 -113 116 -133 142 -55 68 -158 242 -269 454 -156 296 -215 399 -260
449 -22 26 -39 48 -37 50 2 2 38 21 79 42 169 87 261 244 248 424 -13 179
-156 331 -363 385 -84 21 -842 21 -924 -1z"/>
<path d="M1914 2673 c4 -5 31 -22 59 -39 29 -17 62 -45 75 -64 l22 -33 0 -447
0 -447 -30 -41 c-16 -23 -48 -51 -70 -64 -22 -13 -40 -26 -40 -30 0 -5 214 -8
475 -8 261 0 478 -1 482 -1 11 -2 20 18 53 131 17 58 44 145 60 193 16 49 25
87 20 85 -4 -2 -48 -46 -97 -99 -107 -115 -151 -155 -187 -169 -15 -5 -111
-10 -218 -10 l-190 0 3 199 4 199 117 7 c154 9 179 1 209 -66 13 -27 26 -49
29 -49 10 0 23 301 14 323 -11 29 -30 19 -43 -23 -19 -64 -36 -70 -193 -70
l-138 0 0 58 c0 31 3 121 7 200 l6 142 141 0 c78 0 158 -5 179 -11 48 -13 169
-126 203 -188 l25 -46 -5 40 c-3 22 -8 106 -12 188 l-7 147 -480 0 c-264 0
-477 -3 -473 -7z"/>
<path d="M4327 2668 c2 -5 27 -20 54 -33 31 -16 59 -41 76 -67 l28 -42 -2
-435 -3 -435 -26 -38 c-15 -21 -29 -38 -33 -38 -3 0 -26 -18 -51 -40 l-45 -39
283 -1 c258 0 327 6 257 24 -40 10 -104 74 -114 115 -8 30 -9 357 -3 804 l2
107 100 0 c114 0 149 -11 197 -60 49 -51 67 -106 61 -195 -4 -64 -10 -82 -38
-123 -50 -74 -89 -96 -177 -100 -40 -3 -73 -8 -73 -13 0 -5 15 -26 33 -46 46
-53 144 -209 207 -331 30 -56 70 -120 89 -141 36 -38 37 -38 131 -45 179 -12
396 8 447 42 7 4 -29 8 -80 8 -70 0 -100 4 -126 18 -63 34 -124 101 -207 226
-45 69 -100 150 -122 180 l-40 54 40 18 c54 24 154 127 180 185 31 68 30 171
0 238 -29 63 -93 129 -156 162 -94 48 -156 54 -541 51 -194 -1 -351 -6 -348
-10z"/>
<path d="M2224 1308 c-107 -72 -134 -183 -66 -271 76 -98 184 -115 285 -43
l47 34 -37 22 c-35 21 -39 21 -65 6 -48 -29 -94 -24 -133 14 -47 46 -48 94 -4
145 17 19 41 38 53 41 27 6 75 -11 92 -34 11 -15 15 -13 48 18 l35 35 -51 32
c-73 46 -136 46 -204 1z"/>
<path d="M2767 1303 c-21 -50 -97 -224 -129 -293 l-26 -55 40 -3 c54 -4 65 1
73 37 l7 31 88 0 88 0 12 -35 c11 -34 13 -35 61 -35 27 0 49 2 49 5 0 5 -74
173 -120 272 -16 34 -32 73 -36 87 -5 23 -11 26 -49 26 -40 0 -44 -2 -58 -37z
m79 -152 l23 -51 -49 0 c-28 0 -50 3 -50 6 0 13 43 104 47 100 3 -3 16 -28 29
-55z"/>
<path d="M3195 1143 l0 -193 48 0 47 0 0 56 0 57 33 -7 c31 -6 43 -16 97 -83
24 -29 27 -30 80 -24 35 4 50 9 42 14 -7 5 -31 32 -53 60 -39 49 -40 51 -20
59 31 11 61 67 61 115 0 33 -7 50 -31 78 -49 55 -63 60 -189 60 l-115 0 0
-192z m219 94 c21 -16 24 -60 6 -82 -8 -10 -31 -15 -71 -15 l-59 0 0 55 0 55
53 0 c29 0 61 -6 71 -13z"/>
<path d="M3990 1165 c0 -93 3 -179 6 -190 4 -16 14 -20 46 -20 l41 0 1 45 c1
35 5 45 19 48 37 7 67 -9 97 -53 31 -45 31 -45 91 -45 l61 0 -46 52 c-25 29
-46 56 -46 60 0 5 14 21 31 36 32 29 53 92 42 127 -3 11 -14 31 -25 44 -39 50
-56 56 -191 61 l-127 5 0 -170z m220 72 c30 -15 38 -58 15 -81 -12 -11 -35
-16 -81 -16 l-64 0 0 55 0 55 53 0 c28 0 63 -6 77 -13z"/>
<path d="M4520 1145 l0 -190 150 -1 151 -1 -3 41 -3 41 -102 3 -103 3 0 35 0
36 78 -3 77 -4 3 38 3 37 -80 0 -81 0 0 34 c0 30 4 34 31 40 17 3 64 6 103 6
l71 0 1 41 1 40 -148 -3 -149 -3 0 -190z"/>
<path d="M5020 1145 l0 -195 40 0 40 0 1 83 c1 45 4 93 8 106 7 25 7 24 43
-20 20 -24 60 -72 88 -107 34 -42 57 -61 67 -58 8 3 26 6 39 6 l24 0 0 190 0
189 -45 -1 -45 -1 0 -102 c0 -56 -3 -105 -7 -108 -3 -4 -20 12 -37 36 -17 24
-58 73 -90 110 -51 57 -64 67 -93 67 l-33 0 0 -195z"/>
<path d="M5560 1293 l0 -48 60 3 61 4 -3 -140 c-2 -77 -1 -142 2 -145 3 -3 25
-7 49 -8 l45 -4 -3 148 -3 147 56 0 56 0 0 45 0 45 -160 0 -160 0 0 -47z"/>
<path d="M6361 1153 l2 -48 10 38 c11 38 24 45 58 27 28 -15 23 -38 -8 -42
-19 -2 -29 -9 -30 -23 -2 -11 0 -14 3 -7 9 20 37 14 59 -14 l20 -25 -5 68 -5
68 -52 3 -53 3 1 -48z"/>
<path d="M6546 1184 c-14 -36 -6 -85 19 -109 24 -25 45 -32 45 -17 0 4 -9 13
-21 20 -12 7 -18 16 -15 19 3 3 -2 12 -10 20 -23 23 -11 38 30 36 41 -3 46 9
14 31 -29 20 -54 20 -62 0z"/>
<path d="M6702 1127 c2 -45 7 -72 16 -75 7 -2 12 6 12 22 0 28 27 37 36 12 7
-18 54 -50 61 -42 4 3 -2 15 -12 26 -16 17 -17 25 -7 40 15 25 15 67 0 76 -6
4 -33 8 -60 10 l-49 2 3 -71z m96 32 c2 -11 -8 -20 -27 -27 -35 -12 -42 -6
-30 26 10 27 52 28 57 1z"/>
<path d="M6165 1144 c-23 -23 -9 -32 55 -36 54 -3 55 -2 58 25 3 26 2 27 -47
27 -33 0 -55 -6 -66 -16z"/>
<path d="M2610 744 c0 -5 7 -31 15 -59 9 -27 20 -66 25 -87 9 -33 13 -36 36
-29 20 5 32 22 54 75 16 38 27 73 24 77 -10 17 -34 9 -34 -10 0 -20 -31 -81
-41 -81 -3 0 -11 17 -17 38 -11 35 -62 98 -62 76z"/>
<path d="M3100 650 c0 -73 3 -90 15 -90 12 0 15 13 15 56 l0 56 53 -58 52 -57
7 49 c12 89 9 134 -7 134 -11 0 -15 -12 -15 -50 0 -54 -9 -62 -33 -27 -23 35
-65 77 -77 77 -6 0 -10 -34 -10 -90z"/>
<path d="M3332 723 c2 -11 14 -19 31 -21 27 -3 27 -4 27 -73 0 -52 3 -70 13
-67 7 3 13 29 15 71 3 59 5 66 25 69 12 2 22 10 22 18 0 12 -16 16 -68 18 -62
3 -68 1 -65 -15z"/>
<path d="M3784 715 c-38 -30 -45 -53 -28 -93 14 -34 59 -62 99 -62 58 0 90 81
38 101 -14 5 -33 7 -41 4 -13 -5 -12 -8 2 -23 9 -10 16 -24 16 -30 0 -19 -45
-14 -63 6 -39 43 -6 88 59 80 38 -4 47 14 15 32 -32 16 -64 12 -97 -15z"/>
<path d="M4020 651 l0 -89 61 -1 c51 0 60 2 55 15 -3 9 -6 18 -6 20 0 2 -16 4
-35 4 -28 0 -35 4 -35 20 0 16 7 20 30 20 20 0 30 5 30 15 0 10 -10 15 -30 15
-20 0 -30 5 -30 15 0 11 11 15 40 15 28 0 40 4 40 14 0 18 -22 26 -76 26 l-44
0 0 -89z"/>
<path d="M4620 648 l0 -88 53 0 c30 0 57 3 60 7 13 12 -15 33 -44 33 -19 0
-29 5 -29 15 0 10 11 15 35 15 29 0 35 4 35 21 0 18 -5 20 -37 17 -30 -2 -38
1 -41 16 -3 16 2 18 42 15 41 -4 46 -2 46 16 0 18 -7 20 -60 20 l-60 0 0 -87z"/>
<path d="M4853 733 c-9 -3 -13 -31 -13 -90 0 -75 2 -84 18 -81 11 2 19 15 22
38 l5 34 37 -39 c41 -44 58 -42 34 4 -15 29 -15 31 4 41 13 7 20 21 20 41 0
25 -6 33 -35 45 -34 14 -69 17 -92 7z m87 -47 c0 -7 -7 -19 -15 -26 -12 -10
-18 -10 -30 0 -25 21 -18 40 15 40 19 0 30 -5 30 -14z"/>
<path d="M5074 718 c3 -13 6 -52 6 -88 l0 -65 57 1 c46 0 59 4 61 17 3 14 -5
17 -42 17 -39 0 -46 3 -46 19 0 16 8 20 37 23 52 4 56 28 4 28 -30 0 -41 4
-41 15 0 11 12 15 45 15 38 0 45 3 45 20 0 18 -7 20 -66 20 -64 0 -66 -1 -60
-22z"/>
<path d="M2876 693 c-3 -21 -6 -60 -6 -86 l0 -48 58 3 c43 2 57 7 57 18 0 10
-13 16 -42 18 -24 2 -43 5 -43 7 0 19 16 35 35 35 34 0 55 10 55 27 0 11 -10
14 -41 11 -27 -2 -44 1 -46 10 -3 8 10 12 46 12 39 0 51 4 51 15 0 12 -13 15
-59 15 l-58 0 -7 -37z"/>
<path d="M3556 654 c-20 -42 -36 -80 -36 -85 0 -15 19 -10 40 11 12 12 33 20
54 20 26 0 36 -5 41 -20 5 -17 35 -30 35 -15 0 14 -81 165 -89 165 -5 0 -25
-34 -45 -76z m49 -22 c-22 -5 -27 1 -19 23 7 17 8 17 21 -1 12 -17 12 -19 -2
-22z"/>
<path d="M4362 650 c3 -68 6 -80 21 -80 12 0 17 8 17 29 0 21 6 30 23 35 47
13 57 8 57 -28 0 -31 19 -53 34 -39 3 4 6 42 6 85 0 70 -2 78 -19 78 -14 0
-21 -8 -23 -27 -3 -24 -8 -28 -40 -31 -36 -3 -38 -2 -38 27 0 25 -4 31 -21 31
-19 0 -20 -5 -17 -80z"/>
<path d="M5400 630 c0 -18 7 -20 85 -20 64 0 85 3 85 13 0 10 19 14 67 15 130
4 74 12 -80 12 -150 0 -157 -1 -157 -20z"/>
<path d="M5768 643 c7 -3 16 -2 19 1 4 3 -2 6 -13 5 -11 0 -14 -3 -6 -6z"/>
<path d="M6233 643 c15 -2 39 -2 55 0 15 2 2 4 -28 4 -30 0 -43 -2 -27 -4z"/>
<path d="M6358 643 c12 -2 32 -2 45 0 12 2 2 4 -23 4 -25 0 -35 -2 -22 -4z"/>
<path d="M3695 345 c-33 -32 -33 -74 0 -105 22 -21 29 -22 45 -12 34 21 22 -4
-15 -32 -40 -31 -45 -52 -14 -61 29 -10 68 21 98 76 32 60 24 111 -22 139 -42
26 -63 25 -92 -5z m63 -27 c15 -15 16 -54 2 -63 -22 -13 -50 6 -50 34 0 41 22
55 48 29z"/>
<path d="M3940 350 c-28 -28 -25 -45 10 -72 l31 -24 -31 -39 c-28 -35 -37 -76
-17 -75 4 0 34 0 67 0 52 0 60 2 60 19 0 20 -18 31 -52 31 -18 0 -15 6 21 45
47 51 51 76 16 110 -30 31 -77 33 -105 5z m78 -46 c2 -11 -4 -27 -14 -34 -14
-12 -18 -12 -30 4 -10 14 -10 24 -3 38 13 24 43 19 47 -8z"/>
<path d="M4180 343 c-16 -21 -20 -37 -16 -62 8 -51 31 -71 69 -60 33 9 43 6
32 -10 -3 -6 -22 -11 -41 -11 -26 0 -34 -4 -34 -18 0 -47 54 -56 94 -16 35 35
48 88 36 136 -19 70 -99 93 -140 41z m88 -65 c3 -33 0 -38 -18 -38 -23 0 -46
40 -36 65 3 10 15 15 28 13 19 -2 24 -10 26 -40z"/>
<path d="M3508 348 c-3 -7 -3 -57 0 -110 4 -88 6 -98 23 -98 17 0 19 9 19 110
0 101 -2 110 -19 110 -10 0 -21 -6 -23 -12z"/>
</g>
</svg>
