<?xml version="1.0" standalone="no"?>
<!DOCTYPE svg PUBLIC "-//W3C//DTD SVG 20010904//EN"
 "http://www.w3.org/TR/2001/REC-SVG-20010904/DTD/svg10.dtd">
<svg version="1.0" xmlns="http://www.w3.org/2000/svg"
 width="1024.000000pt" height="1024.000000pt" viewBox="0 0 1024.000000 1024.000000"
 preserveAspectRatio="xMidYMid meet">

<g transform="translate(0.000000,1024.000000) scale(0.100000,-0.100000)"
fill="#FFFFFF" stroke="none">
<path d="M4685 8239 c-124 -17 -415 -78 -494 -105 -155 -51 -241 -87 -234 -97
3 -6 1 -7 -5 -3 -16 9 -173 -65 -307 -145 -154 -91 -199 -123 -186 -127 6 -2
18 1 25 7 19 16 25 4 16 -29 -7 -26 -6 -29 18 -33 24 -4 23 -4 -5 -6 -18 0
-33 -6 -33 -13 0 -8 77 -10 308 -5 169 4 444 8 612 8 199 1 288 5 255 10 -187
31 -591 48 -625 27 -17 -11 -22 -11 -29 1 -16 25 -1 43 29 36 17 -4 31 -1 36
6 5 9 -44 11 -219 7 -124 -3 -230 -2 -236 2 -31 18 49 30 207 30 333 1 746 18
793 34 24 8 66 14 93 15 48 0 65 6 54 17 -12 12 -191 24 -441 30 -141 4 -256
9 -254 10 2 2 113 10 247 19 134 8 246 17 248 20 3 3 -4 5 -16 5 -12 0 -22 5
-22 10 0 6 18 10 40 10 33 0 40 3 40 20 0 20 7 20 303 21 418 1 531 -1 537
-11 3 -4 24 -16 47 -25 24 -9 41 -20 38 -24 -9 -15 126 -31 260 -31 76 0 136
-2 134 -4 -4 -4 -171 -15 -494 -31 -55 -3 -176 -7 -270 -10 -93 -2 -176 -4
-182 -4 -7 -1 -13 -5 -13 -10 0 -6 55 -12 123 -14 124 -4 291 -17 517 -38 73
-6 233 -10 383 -8 141 2 257 1 257 -3 0 -23 -59 -28 -327 -29 -186 -1 -265 -4
-223 -9 36 -4 69 -5 74 -2 5 3 6 0 2 -7 -5 -8 -26 -10 -62 -7 -39 4 -53 2 -48
-6 5 -8 1 -9 -10 -5 -11 4 -15 3 -10 -4 3 -6 18 -8 33 -5 22 5 23 5 7 -5 -12
-7 -26 -8 -40 -2 -11 5 -37 6 -56 2 -19 -3 -30 -7 -25 -8 6 -1 2 -8 -8 -16
-16 -12 44 -14 435 -17 249 -2 466 -1 481 2 l28 5 -28 26 c-38 35 -182 137
-265 188 -222 134 -473 228 -803 298 -164 34 -179 36 -405 39 -129 1 -266 -2
-305 -7z m-969 -337 c0 -10 -8 -18 -18 -18 -22 0 -22 1 -2 20 19 20 20 20 20
-2z m2517 -138 c-2 -6 1 -15 8 -20 8 -4 10 -3 5 4 -4 7 -1 12 8 12 9 0 16 -9
16 -20 0 -17 -7 -20 -39 -20 -22 0 -43 5 -47 11 -3 6 -15 9 -25 6 -33 -9 -20
10 17 25 44 18 64 19 57 2z m-265 -3 c23 0 42 -5 42 -11 0 -15 -141 -12 -170
5 -23 13 -22 13 30 11 30 -2 74 -4 98 -5z m112 -1 c13 -9 13 -10 0 -9 -8 0
-24 4 -35 9 l-20 9 20 0 c11 0 27 -4 35 -9z m340 -41 c0 -6 -4 -7 -10 -4 -5 3
-10 11 -10 16 0 6 5 7 10 4 6 -3 10 -11 10 -16z m-50 -9 c0 -5 -19 -9 -42 -9
l-43 2 40 7 c22 4 41 8 43 9 1 0 2 -3 2 -9z"/>
<path d="M3361 7706 c-9 -11 -9 -16 1 -22 7 -4 10 -4 6 1 -4 4 -3 14 3 22 6 7
9 13 6 13 -2 0 -10 -6 -16 -14z"/>
<path d="M4890 7710 c0 -6 7 -10 15 -10 8 0 15 2 15 4 0 2 -7 6 -15 10 -8 3
-15 1 -15 -4z"/>
<path d="M4983 7703 c9 -2 23 -2 30 0 6 3 -1 5 -18 5 -16 0 -22 -2 -12 -5z"/>
<path d="M5248 7693 c28 -2 76 -2 105 0 28 2 5 3 -53 3 -58 0 -81 -1 -52 -3z"/>
<path d="M6480 7647 c-62 -13 -2902 -21 -3050 -8 -113 9 -116 9 -152 -16 -38
-26 -74 -61 -67 -66 2 -1 72 0 154 4 370 15 2326 26 2415 13 19 -2 219 -7 444
-11 404 -5 408 -5 398 14 -10 18 -61 61 -87 74 -5 3 -30 1 -55 -4z"/>
<path d="M3142 7479 c-24 -28 -30 -39 -20 -45 15 -9 3617 -9 3626 0 3 4 -8 21
-26 39 -39 38 12 37 -652 18 -681 -19 -2844 -4 -2885 20 -5 3 -25 -11 -43 -32z
m3518 17 c0 -3 -4 -8 -10 -11 -5 -3 -10 -1 -10 4 0 6 5 11 10 11 6 0 10 -2 10
-4z"/>
<path d="M3095 7351 c27 -6 23 -8 -33 -15 -46 -6 -65 -13 -73 -27 -8 -15 -6
-21 6 -25 9 -4 98 -2 198 3 264 15 3175 16 3444 2 239 -12 264 -8 208 37 -32
25 -51 32 -39 12 5 -7 3 -8 -6 -3 -7 4 -826 9 -1819 10 -993 1 -1831 4 -1861
8 -33 4 -43 3 -25 -2z"/>
<path d="M6880 7200 c0 -5 9 -10 20 -10 11 0 20 -4 20 -10 0 -6 -106 -11 -282
-13 l-283 -2 298 -3 c163 -1 297 2 297 6 0 14 -35 42 -53 42 -9 0 -17 -4 -17
-10z"/>
<path d="M2980 7192 c0 -5 14 -7 30 -4 17 2 30 6 30 8 0 2 -13 4 -30 4 -16 0
-30 -4 -30 -8z"/>
<path d="M2903 7175 c-16 -13 -2 -14 102 -13 66 1 91 3 55 5 -36 2 -72 6 -80
10 -30 12 -59 11 -77 -2z"/>
<path d="M2825 7051 c-3 -2 -5 -7 -5 -10 0 -3 945 -8 2100 -10 1534 -2 2100 0
2100 8 0 6 -12 11 -27 11 -16 0 -959 1 -2096 3 -1137 1 -2070 1 -2072 -2z"/>
<path d="M6375 6920 l-450 -5 460 -1 c253 -1 505 2 560 6 l100 7 -110 -1 c-60
0 -312 -3 -560 -6z"/>
<path d="M5063 6913 c9 -2 25 -2 35 0 9 3 1 5 -18 5 -19 0 -27 -2 -17 -5z"/>
<path d="M7058 6913 c6 -2 18 -2 25 0 6 3 1 5 -13 5 -14 0 -19 -2 -12 -5z"/>
<path d="M2865 6860 c-656 -13 -737 -20 -870 -84 -93 -44 -154 -105 -201 -201
l-38 -77 -7 -227 c-9 -308 2 -490 37 -606 42 -141 44 -126 -31 -197 -69 -64
-119 -126 -187 -230 -35 -54 -39 -57 -63 -48 -41 16 -87 12 -122 -10 -29 -17
-33 -25 -33 -60 0 -51 34 -90 80 -90 16 0 30 -2 30 -5 0 -9 -62 -118 -107
-186 -44 -68 -73 -89 -122 -89 -35 0 -41 -13 -41 -90 0 -93 2 -94 281 -106
l146 -6 38 -79 c45 -93 96 -155 167 -201 47 -31 49 -33 27 -39 -13 -4 -151 -7
-306 -8 -276 -1 -283 -1 -294 -22 -8 -16 -8 -24 1 -33 8 -8 952 -12 3708 -14
2033 -1 3707 0 3720 3 26 6 31 49 6 59 -9 3 -137 6 -285 6 -158 0 -269 4 -269
9 0 5 26 24 58 42 74 42 197 167 244 247 20 35 49 99 64 143 l27 79 126 0
c188 0 171 -17 171 171 0 87 -4 160 -8 163 -5 3 -74 8 -154 12 l-145 7 -13 49
c-7 27 -25 75 -41 106 -16 32 -29 58 -29 59 0 0 18 -1 39 -4 107 -14 160 51
115 140 -59 116 -212 226 -370 267 l-41 10 -5 73 c-13 197 -162 324 -320 272
-42 -14 -68 -34 -125 -91 l-73 -74 0 40 c0 153 -83 287 -212 344 -63 27 -73
49 -39 80 78 71 27 196 -79 196 -35 0 -74 -19 -97 -48 -7 -9 -13 -41 -13 -73
0 -53 2 -59 42 -97 l42 -41 -26 -10 c-53 -20 -284 -32 -853 -44 -593 -13 -772
-11 -768 9 1 6 5 74 9 152 l7 140 36 7 c43 8 91 41 91 62 0 29 -40 81 -74 97
-18 9 -103 25 -187 36 -85 11 -206 26 -269 35 -63 8 -252 24 -420 35 -168 12
-336 26 -375 32 -89 13 -1072 18 -1600 8z m1350 -80 c140 -2 145 -3 75 -11
-41 -4 -480 -13 -975 -19 -1036 -12 -1084 -15 -1226 -86 -94 -47 -120 -82
-157 -214 l-10 -35 -1 47 c-1 26 8 71 19 100 22 59 5 45 -32 -27 -11 -22 -25
-43 -31 -46 -17 -11 -29 -198 -23 -358 5 -123 3 -152 -7 -142 -9 9 -12 72 -12
244 1 220 2 235 24 291 60 152 187 220 446 241 81 7 1589 24 1710 19 28 -1
118 -3 200 -4z m540 -39 c121 -11 317 -30 435 -42 359 -34 538 -64 517 -86 -2
-2 -46 3 -98 11 -52 8 -191 24 -309 36 -118 11 -280 28 -360 36 -80 8 -204 19
-277 24 -118 8 -203 27 -203 46 0 3 17 4 38 1 20 -2 136 -14 257 -26z m-1449
-67 c46 -12 52 -42 57 -319 l5 -260 -9 205 c-5 113 -13 237 -17 275 l-7 70
-410 -4 c-225 -2 -412 -6 -415 -8 -3 -3 -5 -119 -5 -259 0 -197 -3 -254 -12
-254 -10 0 -13 58 -13 259 0 228 2 260 17 272 11 10 62 16 172 20 219 8 612
10 637 3z m974 -4 c-30 -4 -210 -10 -400 -14 -189 -3 -348 -10 -352 -14 -5 -5
-7 -125 -6 -268 l3 -259 365 0 c411 0 475 -2 445 -14 -11 -5 -193 -11 -404
-14 l-383 -6 -29 29 -29 28 1 174 c1 95 4 214 8 263 l6 90 40 6 c22 3 209 6
415 6 212 0 351 -3 320 -7z m119 -313 c0 -191 -4 -301 -9 -283 -13 42 -13 609
0 601 6 -4 10 -115 9 -318z m-2059 283 c18 -11 7 -16 -65 -24 -67 -8 -133 -50
-168 -108 -66 -106 -49 -394 27 -457 10 -8 61 -15 141 -19 69 -2 125 -9 125
-13 0 -5 -55 -9 -123 -9 -122 0 -124 0 -149 28 -14 15 -39 52 -54 82 -27 52
-29 62 -29 180 0 97 4 136 19 175 22 58 57 109 92 131 57 38 151 55 184 34z
m2162 -243 l3 -254 28 -40 c15 -22 45 -50 67 -62 42 -23 52 -41 23 -41 -32 1
-97 54 -118 95 -17 35 -20 70 -27 280 -4 132 -5 248 -2 258 16 54 23 -10 26
-236z m-2102 -34 c0 -152 -2 -274 -4 -272 -2 2 -6 127 -10 277 -5 189 -4 272
3 272 8 0 11 -88 11 -277z m3170 21 l0 -137 -38 6 c-20 4 -157 10 -302 13
-312 8 -458 -4 -612 -52 -17 -5 -18 5 -18 124 0 92 4 132 13 139 28 23 298 38
725 41 l232 2 0 -136z m1787 90 c15 -24 15 -29 2 -53 -11 -19 -21 -25 -40 -22
-29 4 -39 17 -39 52 0 52 48 66 77 23z m-4695 -95 c29 -6 70 -20 91 -30 l37
-19 0 -113 0 -113 275 4 c199 3 275 1 275 -7 0 -15 24 -14 -390 -17 -281 -2
-370 1 -385 10 -19 12 -20 20 -14 117 4 57 7 121 8 142 1 43 11 45 103 26z
m-384 -105 c12 -8 22 -24 22 -37 0 -12 9 -48 20 -81 11 -32 17 -62 14 -67 -8
-14 -81 -11 -119 5 -48 20 -56 42 -48 131 l6 76 41 -6 c23 -4 51 -13 64 -21z
m5170 -73 c52 -27 135 -122 119 -137 -2 -3 -15 11 -27 31 -29 47 -75 80 -129
95 -59 16 -115 -6 -190 -73 -46 -42 -57 -48 -59 -33 -5 25 51 81 112 111 60
30 123 32 174 6z m-2033 0 c-6 -5 -33 -16 -62 -25 -65 -22 -158 -81 -200 -129
-33 -37 -63 -49 -63 -23 0 19 86 97 144 131 51 30 122 53 166 54 14 1 20 -3
15 -8z m1793 -1 c-9 -6 -43 -47 -74 -93 -31 -45 -73 -99 -93 -120 -34 -36 -38
-38 -83 -32 -27 4 -55 2 -67 -5 -19 -10 -21 -8 -21 22 0 42 29 89 94 153 72
69 106 85 191 84 51 0 65 -2 53 -9z m-3873 -169 c54 -12 -155 -21 -512 -21
-216 0 -343 4 -343 10 0 15 793 25 855 11z m981 1 c-7 -11 -708 -25 -803 -16
-170 16 -45 24 368 24 242 0 438 -4 435 -8z m3035 -15 c110 -74 155 -230 103
-356 -41 -99 -102 -151 -176 -151 -88 0 -182 107 -214 245 -26 111 3 186 98
249 66 45 135 50 189 13z m670 -26 c54 -34 81 -74 104 -154 33 -116 -18 -247
-117 -298 -131 -67 -288 74 -288 258 0 165 172 276 301 194z m-1211 -1 c-10
-19 -21 -20 -408 -20 -218 0 -562 -3 -764 -7 -339 -6 -368 -5 -368 10 0 10 1
18 3 19 1 1 313 5 692 8 380 3 727 7 773 8 80 2 82 1 72 -18z m-2256 -35 c-20
-15 -80 -20 -111 -8 -15 6 -13 9 12 14 17 4 50 7 74 8 42 1 43 0 25 -14z m526
-32 c210 -99 315 -271 342 -559 l12 -124 -25 -26 c-32 -36 -138 -124 -148
-124 -4 0 -4 26 0 58 13 91 13 273 -1 322 -34 126 -138 262 -237 311 -41 21
-63 24 -153 24 -96 0 -110 -3 -165 -29 -278 -137 -340 -545 -118 -777 69 -73
147 -112 256 -130 l79 -12 -24 -23 c-27 -26 -137 -74 -170 -74 -37 0 -147 70
-213 135 -67 67 -121 161 -154 269 -31 102 -30 264 5 382 55 192 185 333 369
400 61 22 82 24 165 21 86 -4 103 -8 180 -44z m-1722 27 c17 0 32 -4 32 -10 0
-7 -167 -10 -480 -10 -309 0 -480 4 -480 10 0 10 643 20 815 13 44 -1 95 -3
113 -3z m1047 -3 c-15 -9 -144 -13 -497 -15 -427 -3 -478 -1 -478 12 0 14 54
16 498 16 395 -1 493 -3 477 -13z m-1997 -9 c-4 -10 -74 -14 -289 -18 -156 -3
-286 -4 -288 -3 -26 18 107 28 397 31 143 2 183 -1 180 -10z m4210 -54 c14
-10 22 -25 22 -46 0 -26 -3 -29 -22 -25 -13 3 -56 9 -95 13 -61 5 -73 10 -73
25 0 9 7 25 16 33 21 22 122 22 152 0z m-2388 -14 l168 0 7 -30 c6 -25 0 -42
-34 -93 -107 -165 -142 -350 -106 -552 8 -44 15 -86 15 -92 0 -10 -80 -13
-362 -14 -200 -1 -374 -4 -388 -9 -24 -7 -24 -8 -5 -16 21 -9 738 -13 765 -4
11 4 16 -3 18 -23 l3 -27 -413 2 -413 3 -17 74 c-28 123 -39 284 -36 536 l3
240 285 6 c157 3 298 4 314 2 16 -2 104 -3 196 -3z m-1840 -56 c0 -28 3 -72 6
-97 l6 -45 -123 1 -124 2 -123 -52 -124 -51 -25 54 c-28 62 -61 209 -49 221 6
7 332 18 503 18 l53 0 0 -51z m993 -316 c3 -223 10 -395 17 -427 7 -35 8 -57
2 -63 -7 -7 -109 -7 -288 -2 l-277 9 -18 53 c-26 77 -115 233 -168 296 -119
139 -294 231 -496 259 -16 2 3 5 44 6 212 4 433 -135 562 -354 16 -27 46 -92
66 -144 39 -97 53 -112 84 -93 13 8 91 12 244 12 216 0 225 1 225 19 0 19 -10
20 -222 23 -123 2 -226 0 -229 -5 -10 -14 -36 26 -69 105 -17 42 -50 105 -73
140 -55 84 -196 223 -279 277 l-68 44 0 103 c0 98 1 103 23 107 12 2 223 5
468 6 l447 1 5 -372z m2201 330 c6 -28 16 -331 11 -326 -2 1 -13 52 -24 111
-25 131 -28 237 -6 237 8 0 17 -10 19 -22z m402 -96 c-4 -48 -10 -91 -13 -96
-21 -33 -32 159 -12 196 21 40 32 -6 25 -100z m212 72 c2 -23 -3 -47 -12 -59
-14 -19 -15 -15 -16 43 0 47 3 63 13 60 6 -3 13 -22 15 -44z m-398 -117 c0
-112 -4 -158 -13 -172 -12 -16 -15 -12 -20 36 -9 71 -9 274 0 282 3 4 12 7 20
7 10 0 13 -32 13 -153z m985 67 c120 -27 268 -138 331 -248 19 -33 40 -69 46
-78 28 -40 -57 -83 -151 -76 -70 5 -157 44 -282 129 -119 80 -207 110 -345
116 -89 5 -113 2 -195 -21 -52 -15 -127 -42 -167 -61 -84 -40 -247 -149 -347
-232 -38 -32 -117 -95 -175 -140 -58 -44 -140 -110 -184 -146 -103 -86 -305
-227 -381 -265 -86 -43 -175 -71 -285 -88 -119 -19 -747 -31 -1490 -29 l-525
2 -3 26 -3 25 958 0 c1019 -1 1033 0 1201 48 175 51 244 96 712 469 370 295
465 358 622 413 229 81 402 59 630 -80 139 -85 217 -118 282 -120 46 -1 61 3
78 19 33 33 16 67 -76 160 -83 82 -101 93 -296 182 -16 7 -18 9 -5 7 11 -3 34
-8 50 -12z m-1817 -20 c56 -18 147 -93 180 -147 11 -17 31 -64 45 -103 23 -65
24 -79 17 -180 -4 -60 -12 -120 -18 -134 -5 -14 -16 -44 -23 -67 -6 -24 -20
-50 -29 -58 -15 -14 -17 -12 -18 22 0 27 2 32 7 19 6 -16 10 -12 25 24 20 50
25 44 -81 92 -102 46 -91 63 13 21 55 -22 90 -31 96 -25 5 5 12 35 15 67 l6
57 -82 -3 c-51 -3 -80 0 -78 6 2 5 39 11 82 13 l78 3 -7 57 c-4 31 -9 66 -12
79 -6 22 -7 22 -36 7 -17 -9 -51 -31 -77 -49 -25 -18 -52 -30 -59 -28 -12 5
-11 -18 4 -65 8 -26 -10 -74 -39 -103 -33 -34 -36 -27 46 -114 43 -45 66 -108
51 -133 -6 -10 -30 -27 -54 -39 -59 -31 -194 -32 -258 -3 -122 55 -221 207
-230 351 -5 90 17 206 55 286 59 126 235 194 381 147z m1496 -4 c96 -11 219
-57 282 -105 43 -33 44 -51 2 -29 -67 35 -225 85 -292 94 -88 11 -235 -4 -284
-29 -20 -10 -91 -40 -157 -66 -66 -27 -126 -53 -134 -59 -11 -8 -13 -8 -7 2 9
16 144 84 230 116 36 14 78 34 93 45 23 18 93 34 163 40 8 0 55 -4 104 -9z
m1179 -80 c3 -41 2 -54 -3 -35 -8 31 -13 112 -6 104 2 -2 6 -33 9 -69z m70
-82 c21 -11 21 -11 2 -19 -26 -10 -186 -10 -245 0 l-45 8 35 6 c33 7 85 11
188 15 24 1 53 -3 65 -10z m-5483 -64 c70 -27 187 -112 230 -167 58 -73 49
-91 -11 -24 -132 149 -295 210 -461 173 -87 -19 -155 -56 -230 -125 -72 -66
-87 -66 -23 0 121 123 232 172 370 165 44 -2 100 -12 125 -22z m3630 22 c0 -3
-33 -28 -72 -56 -40 -29 -59 -39 -43 -23 26 25 104 83 112 83 2 0 3 -2 3 -4z
m682 -75 c100 -29 185 -78 260 -152 113 -111 159 -241 160 -459 1 -83 -4 -132
-16 -174 -49 -168 -160 -307 -293 -369 -142 -66 -230 -80 -338 -52 -196 52
-363 215 -428 420 -32 101 -32 310 0 407 47 144 113 233 227 308 132 85 287
111 428 71z m-4347 -18 c65 -20 144 -73 200 -135 53 -59 148 -244 170 -333 19
-73 33 -345 18 -345 -6 0 -13 55 -16 133 -12 242 -71 392 -211 533 -106 106
-157 128 -301 129 -95 0 -104 -2 -178 -37 -137 -66 -221 -166 -342 -408 -73
-147 -131 -234 -195 -294 -74 -70 -81 -45 -7 27 69 68 113 135 178 272 104
221 192 336 312 412 106 67 247 85 372 46z m6150 -3 c78 -23 169 -28 191 -9
20 16 19 -9 -2 -39 -22 -32 -86 -29 -196 9 -49 16 -99 29 -110 27 -45 -6 -88
-142 -88 -280 0 -37 -4 -58 -11 -58 -15 0 -6 196 11 253 16 53 75 117 109 117
14 0 58 -9 96 -20z m-1041 -175 c59 -109 89 -175 78 -175 -4 0 -38 60 -77 132
-38 72 -80 147 -92 165 -13 19 -23 37 -23 41 1 18 65 -73 114 -163z m-1654
121 c0 -2 -8 -10 -17 -17 -16 -13 -17 -12 -4 4 13 16 21 21 21 13z m-3434
-126 c76 -33 152 -97 194 -161 59 -92 74 -170 75 -384 l0 -180 -32 -65 c-41
-83 -89 -129 -186 -180 -71 -36 -85 -40 -152 -40 -204 0 -382 156 -435 380
-18 74 -15 223 5 300 69 267 321 424 531 330z m-746 -100 c13 -9 11 -14 -14
-36 -31 -28 -59 -28 -64 -1 -8 38 42 61 78 37z m6460 -21 c47 -21 90 -56 90
-72 0 -6 -8 -3 -17 5 -10 8 -47 31 -83 51 -70 39 -64 50 10 16z m820 -149 l0
-30 -820 0 -820 0 0 30 0 30 820 0 820 0 0 -30z m-4527 -76 c41 -4 56 -9 48
-17 -12 -12 -594 -24 -963 -19 -206 3 -248 6 -248 18 0 8 1 15 3 15 25 15
1011 17 1160 3z m4416 -29 c108 -7 111 -8 111 -31 l0 -24 -377 -1 c-208 0
-574 -3 -814 -5 -421 -4 -437 -3 -442 15 -7 28 4 39 43 43 75 7 1375 9 1479 3z
m-2789 -329 c40 -88 137 -205 220 -266 39 -27 70 -52 70 -55 0 -3 -472 -5
-1050 -5 -833 0 -1050 3 -1050 13 0 6 26 25 58 42 76 40 158 125 194 203 15
34 29 62 31 63 1 1 196 5 432 9 279 5 488 14 595 25 178 19 333 31 418 33 l53
2 29 -64z m1420 -48 c50 -88 160 -196 238 -232 34 -16 62 -33 62 -38 0 -4
-175 -8 -390 -8 -214 0 -390 4 -390 8 0 5 16 16 36 25 101 49 218 163 267 264
31 61 31 62 76 65 52 3 52 3 101 -84z m-3975 -24 c44 -86 146 -202 202 -230
l38 -19 -268 -3 c-147 -1 -387 -1 -535 0 l-267 3 55 36 c73 47 149 132 191
213 l34 66 205 3 c113 1 228 3 256 5 l51 2 38 -76z"/>
<path d="M7198 5963 c-45 -48 -63 -84 -79 -159 -10 -52 -10 -66 5 -112 60
-180 231 -188 296 -15 47 127 5 269 -91 307 -63 25 -90 21 -131 -21z m82 -21
c0 -16 -16 -55 -36 -88 -20 -32 -40 -70 -45 -83 -9 -23 -10 -23 -24 -5 -22 30
-18 66 16 120 57 90 89 110 89 56z"/>
<path d="M7894 5976 c-65 -29 -124 -136 -124 -225 0 -82 75 -183 144 -196 71
-14 153 56 177 148 39 157 -81 324 -197 273z m9 -83 c-7 -48 -52 -133 -70
-133 -20 0 -16 50 8 90 19 32 58 80 65 80 2 0 0 -17 -3 -37z"/>
<path d="M5100 5876 c0 -2 7 -7 16 -10 8 -3 12 -2 9 4 -6 10 -25 14 -25 6z"/>
<path d="M5203 5797 c45 -46 79 -93 106 -148 23 -45 41 -76 41 -70 0 6 -15 41
-32 78 -34 68 -98 147 -150 185 -17 11 -1 -9 35 -45z"/>
<path d="M5371 5464 c0 -11 3 -14 6 -6 3 7 2 16 -1 19 -3 4 -6 -2 -5 -13z"/>
<path d="M5382 5405 c0 -16 2 -22 5 -12 2 9 2 23 0 30 -3 6 -5 -1 -5 -18z"/>
<path d="M3500 5760 l0 -33 90 5 c50 3 94 8 97 12 4 4 -1 14 -10 23 -11 11
-40 18 -96 21 l-81 5 0 -33z"/>
<path d="M2512 5754 c2 -24 7 -29 31 -28 143 3 157 4 157 18 0 19 -22 26 -113
33 l-79 6 4 -29z"/>
<path d="M4861 5722 c-38 -4 -37 6 -9 -155 10 -61 28 -91 44 -75 5 5 27 113
39 184 6 38 4 42 -17 45 -13 2 -38 3 -57 1z"/>
<path d="M4753 5704 c-18 -8 -33 -16 -33 -19 0 -3 20 -45 44 -94 28 -54 50
-88 60 -88 19 0 19 -5 6 94 -18 136 -16 134 -77 107z"/>
<path d="M4954 5701 c6 -9 -18 -149 -34 -193 -17 -53 26 -22 89 64 41 54 71
79 71 57 0 -6 -27 -43 -60 -83 -64 -77 -68 -87 -46 -105 11 -10 30 -3 91 31
43 24 80 49 82 55 6 15 -36 90 -63 115 -19 16 -116 68 -129 68 -3 0 -4 -4 -1
-9z"/>
<path d="M4662 5647 c-29 -31 -28 -37 14 -78 20 -18 45 -47 57 -64 11 -17 -8
-3 -45 33 -37 34 -69 62 -72 62 -10 0 -36 -59 -36 -82 0 -27 15 -38 100 -72
l62 -25 19 22 c22 27 22 24 6 78 -20 66 -60 149 -73 149 -6 0 -20 -10 -32 -23z"/>
<path d="M4565 5443 c-4 -21 -9 -50 -11 -64 -5 -28 12 -147 25 -167 5 -8 26
-4 76 17 39 16 74 26 79 23 5 -3 -25 -19 -68 -35 -74 -28 -77 -31 -71 -55 10
-40 40 -77 116 -142 82 -71 109 -77 109 -25 0 49 32 187 41 178 4 -4 1 -37 -6
-72 -8 -35 -15 -82 -17 -105 l-3 -41 58 -3 c33 -2 57 1 57 7 0 20 -32 145 -41
164 -6 10 -8 21 -6 24 9 8 33 -48 52 -120 10 -37 22 -70 27 -73 16 -10 78 37
78 60 0 27 -46 101 -89 140 -17 17 -31 36 -31 43 0 11 -4 11 -21 2 -40 -21
-107 -2 -153 45 -45 44 -60 85 -50 135 6 28 3 31 -65 65 -39 20 -73 36 -75 36
-3 0 -8 -17 -11 -37z m124 -109 c2 -2 -21 -4 -52 -4 -31 0 -58 4 -62 9 -5 9
104 3 114 -5z m82 -219 c-39 -89 -51 -108 -51 -84 0 26 65 169 77 169 7 0 -3
-34 -26 -85z"/>
<path d="M4800 5457 c-21 -16 -50 -59 -50 -72 0 -5 9 4 20 21 11 17 30 36 43
43 51 27 108 -29 109 -109 0 -48 -5 -57 -49 -75 -41 -17 -59 -10 -97 37 -14
18 -26 28 -26 21 0 -20 48 -70 80 -83 37 -15 89 -6 125 22 24 19 27 26 22 64
-6 53 -38 99 -87 124 -45 23 -68 25 -90 7z"/>
<path d="M6280 5314 c-172 -62 -300 -252 -300 -444 0 -144 43 -257 130 -348
66 -68 116 -99 193 -118 186 -48 375 42 465 222 44 89 55 151 50 276 -5 100
-9 116 -41 181 -44 88 -130 177 -207 214 -71 34 -218 43 -290 17z m260 -74
c63 -32 151 -125 186 -195 27 -56 29 -68 29 -180 0 -109 -3 -126 -29 -190 -31
-77 -78 -133 -143 -172 -61 -35 -76 -23 -20 16 26 17 47 34 47 37 0 11 -70
111 -90 129 -11 10 -20 25 -20 34 1 11 8 7 27 -14 14 -16 43 -49 64 -73 25
-28 36 -49 32 -59 -11 -28 15 -5 45 40 32 48 57 101 43 93 -9 -6 -135 47 -158
66 -22 18 -3 29 21 13 39 -26 145 -64 151 -54 3 4 9 31 12 58 7 58 6 59 -112
64 -62 3 -59 3 24 5 l94 2 -5 64 c-9 103 -11 104 -102 45 -75 -48 -103 -57
-76 -24 7 8 16 15 21 15 5 0 36 17 69 37 49 31 59 42 54 58 -7 24 -52 85 -62
85 -4 0 -32 -34 -61 -75 -30 -41 -61 -75 -68 -75 -9 0 -7 -10 7 -32 14 -23 20
-51 20 -94 0 -81 -27 -122 -91 -142 -53 -17 -81 -12 -131 22 -23 15 -40 21
-49 15 -8 -5 -47 -16 -86 -26 -68 -15 -73 -19 -73 -43 0 -16 12 -37 31 -56
l31 -29 17 25 c9 14 33 43 55 65 l39 40 -32 -39 c-18 -21 -40 -54 -49 -72 -15
-33 -15 -35 8 -59 28 -30 96 -71 132 -80 24 -6 25 -5 37 69 7 42 9 90 6 107
-5 24 -4 30 5 24 10 -6 11 -34 7 -112 l-6 -104 42 3 42 3 3 45 c1 25 -4 79
-11 120 -11 56 -12 70 -2 57 7 -9 18 -52 24 -94 7 -43 14 -88 17 -100 7 -36
-21 -53 -88 -53 -120 0 -263 94 -320 212 -43 86 -54 178 -34 274 32 159 115
269 237 314 72 27 176 22 239 -10z m-225 -598 c-14 -34 -25 -70 -25 -81 0 -11
-4 -23 -10 -26 -18 -11 -10 43 16 115 15 40 31 67 35 63 5 -5 -2 -36 -16 -71z"/>
<path d="M6393 5223 c4 -15 12 -68 19 -116 17 -121 34 -115 63 20 25 114 29
105 -49 118 -38 6 -39 6 -33 -22z"/>
<path d="M6298 5223 c-21 -9 -38 -19 -38 -23 0 -4 15 -33 34 -63 18 -31 39
-70 46 -87 9 -22 19 -30 38 -30 l25 0 -6 73 c-9 99 -24 147 -45 146 -9 -1 -34
-8 -54 -16z"/>
<path d="M6495 5126 c-11 -55 -19 -105 -20 -111 -1 -27 31 -3 85 65 l59 75
-26 27 c-14 15 -38 31 -52 36 l-27 10 -19 -102z"/>
<path d="M6200 5170 c-11 -11 -20 -23 -20 -27 1 -5 30 -39 65 -77 45 -49 68
-67 80 -62 9 3 15 9 13 14 -24 55 -96 172 -105 172 -7 0 -22 -9 -33 -20z"/>
<path d="M6132 5081 c-25 -43 -28 -71 -9 -71 6 0 41 -14 76 -30 65 -31 95 -33
89 -5 -4 21 -110 144 -124 144 -6 1 -20 -16 -32 -38z"/>
<path d="M6091 4956 c-12 -49 -13 -157 -2 -196 5 -15 14 -23 22 -21 8 2 48 11
89 19 41 8 76 16 77 17 2 1 -4 20 -13 42 -15 39 -18 41 -53 36 -20 -2 -56 0
-81 5 -43 9 -41 10 36 11 79 1 82 2 86 26 3 15 -1 30 -11 39 -14 13 -123 66
-135 66 -2 0 -9 -20 -15 -44z"/>
<path d="M6396 4960 c41 -20 74 -70 74 -110 0 -21 -49 -83 -50 -62 0 8 -9 11
-27 7 -26 -5 -26 -5 -5 4 31 14 28 23 -8 19 -22 -2 -38 6 -66 32 l-37 35 24
-45 c47 -87 126 -114 180 -61 31 32 39 84 19 135 -13 34 -66 66 -110 66 l-35
0 41 -20z"/>
<path d="M1986 5144 c-80 -29 -138 -85 -192 -187 -32 -62 -37 -79 -41 -165 -5
-82 -2 -107 17 -161 66 -195 244 -308 401 -257 74 24 131 67 167 123 36 58 79
174 88 240 19 146 -76 336 -198 397 -43 21 -65 26 -127 25 -42 0 -94 -7 -115
-15z m224 -60 c33 -16 84 -71 104 -111 27 -54 18 -50 -16 7 -44 73 -96 100
-190 100 -38 0 -84 -7 -104 -15 l-36 -15 24 -28 c12 -15 34 -51 48 -80 21 -44
28 -51 48 -47 45 11 102 -36 102 -84 0 -28 5 -26 75 22 35 25 62 52 66 67 7
24 7 23 8 -6 1 -27 -6 -36 -56 -71 -32 -21 -63 -50 -70 -63 -11 -23 -13 -23
-14 -5 -1 11 -7 -7 -14 -40 l-13 -60 -1 66 c-1 84 -29 132 -79 137 -39 4 -39
1 -7 -34 34 -36 29 -53 -23 -80 l-42 -22 -15 21 c-22 31 -18 57 13 90 27 30
14 28 -22 -2 -17 -15 -18 -15 -12 5 4 15 -6 34 -40 75 -26 29 -50 55 -54 57
-7 3 -50 -88 -50 -107 0 -6 13 -11 30 -11 16 0 48 -8 70 -17 33 -15 40 -23 40
-46 0 -15 12 -45 26 -67 22 -34 32 -40 61 -40 19 0 47 7 63 15 27 14 30 14 30
0 0 -14 -34 -34 -82 -49 -10 -3 -20 -24 -27 -58 -7 -29 -20 -67 -31 -85 -19
-32 -19 -33 3 -48 12 -8 29 -15 37 -15 9 0 21 -5 27 -11 6 -6 21 -8 33 -4 19
6 21 12 16 43 -5 35 -5 35 5 9 7 -18 17 -27 28 -25 17 4 19 24 8 93 -6 37 -6
38 4 10 6 -16 14 -43 17 -59 l7 -29 32 27 33 27 -35 36 c-19 20 -32 39 -29 42
3 3 20 -11 38 -32 30 -35 32 -37 49 -20 13 13 17 14 17 4 0 -20 -87 -98 -136
-121 -22 -11 -54 -20 -70 -20 -73 0 -214 101 -255 183 -30 58 -45 180 -30 249
29 136 115 236 223 257 51 10 133 3 168 -15z m-72 -79 l0 -30 -8 30 c-4 17 -8
39 -8 50 l-1 20 9 -20 c5 -11 8 -33 8 -50z m-60 -5 l0 -25 -8 25 c-4 14 -8 34
-8 45 l-1 20 9 -20 c5 -11 8 -31 8 -45z m118 0 c-9 -22 -16 -54 -16 -70 0 -17
-4 -30 -10 -30 -5 0 -10 9 -10 19 0 24 41 133 48 127 2 -3 -3 -23 -12 -46z
m-66 -80 c-19 -12 -19 -10 -13 25 6 29 6 29 16 6 8 -17 7 -25 -3 -31z m105
-25 c-15 -25 -31 -45 -36 -45 -17 0 -9 35 11 48 11 7 20 23 20 36 0 13 6 26
13 29 22 7 19 -21 -8 -68z m-138 23 c-3 -8 -6 -5 -6 6 -1 11 2 17 5 13 3 -3 4
-12 1 -19z m279 -176 c-7 -11 -136 -36 -144 -28 -7 7 14 13 73 20 27 4 54 11
59 16 12 12 21 5 12 -8z m-31 -102 c-22 -67 -30 -59 -9 9 8 29 18 51 21 48 3
-3 -3 -29 -12 -57z m-175 -8 c0 -4 -17 -6 -37 -4 -65 6 -70 10 -15 11 28 0 52
-3 52 -7z m-46 -72 c4 -31 3 -40 -4 -30 -5 8 -10 30 -10 49 0 45 6 37 14 -19z"/>
<path d="M1926 5015 c-31 -28 -33 -41 -8 -54 10 -5 31 -28 46 -50 25 -35 32
-40 55 -34 35 8 37 10 19 30 -8 10 -28 44 -44 76 -15 31 -31 57 -35 57 -3 0
-18 -11 -33 -25z"/>
<path d="M1837 4825 c-8 -19 -9 -85 -2 -85 2 0 29 9 60 21 40 15 55 26 55 39
0 24 -8 29 -63 36 -36 5 -45 3 -50 -11z"/>
<path d="M1930 4759 c-8 -5 -32 -16 -52 -24 -33 -13 -38 -19 -38 -48 0 -18 6
-41 13 -50 11 -15 16 -13 60 24 36 31 47 47 47 69 0 33 -9 41 -30 29z"/>
<path d="M1917 4645 c-40 -37 -46 -47 -38 -63 25 -47 37 -45 70 8 17 27 36 50
41 50 12 0 9 -6 -33 -69 -33 -49 -29 -74 15 -79 20 -2 28 5 46 45 33 73 32 94
-4 126 -18 15 -36 27 -40 27 -5 -1 -31 -21 -57 -45z"/>
<path d="M6405 6800 c-368 -3 -648 -8 -621 -12 27 -5 348 -8 713 -8 520 0 664
3 661 12 -5 15 48 15 -753 8z"/>
<path d="M7090 6670 c0 -6 -216 -11 -612 -13 l-613 -2 689 -3 c611 -2 687 0
676 13 -14 17 -140 22 -140 5z"/>
<path d="M6158 6523 c182 -2 482 -2 665 0 182 1 33 2 -333 2 -366 0 -515 -1
-332 -2z"/>
<path d="M6255 6400 l-510 -5 689 -3 c379 -1 687 0 685 2 -10 8 -389 11 -864
6z"/>
<path d="M8254 3961 c-68 -17 -134 -98 -134 -164 0 -94 106 -179 199 -161 17
4 51 24 76 46 72 63 80 139 24 219 -37 52 -101 76 -165 60z m129 -70 c39 -36
42 -44 42 -90 0 -118 -125 -179 -220 -107 -66 50 -68 157 -4 210 25 21 41 26
85 26 50 0 59 -4 97 -39z"/>
<path d="M8226 3808 c2 -35 3 -69 4 -75 0 -21 14 -15 25 9 13 29 38 34 59 13
25 -26 44 -11 51 39 8 53 2 76 -21 76 -13 0 -15 -7 -9 -39 7 -44 -8 -63 -25
-31 -11 20 -13 21 -36 5 -25 -16 -25 -16 -22 12 3 24 7 28 31 25 19 -2 27 2
27 13 0 11 -11 15 -43 15 l-43 0 2 -62z"/>
<path d="M7325 3948 c-146 -15 -260 -72 -370 -182 -110 -111 -185 -282 -185
-420 1 -193 113 -394 282 -504 79 -51 148 -76 277 -97 84 -14 113 -15 188 -5
160 21 306 97 408 212 61 70 131 214 146 302 52 303 -152 613 -447 682 -80 18
-199 23 -299 12z m220 -109 c175 -82 279 -335 246 -599 -23 -181 -112 -325
-236 -382 -71 -32 -191 -32 -255 1 -107 56 -204 201 -236 351 -21 99 -14 272
14 351 53 150 126 234 249 285 69 30 146 27 218 -7z"/>
<path d="M4980 3938 c-113 -5 -339 -6 -502 -3 l-297 5 -7 -47 c-6 -41 -48
-195 -70 -258 -4 -11 26 14 67 55 94 96 121 108 252 116 l104 7 7 -49 c3 -27
9 -225 13 -439 4 -296 3 -400 -6 -428 -8 -22 -32 -54 -64 -82 -28 -24 -48 -47
-45 -50 3 -3 126 -4 274 -3 l269 3 -54 34 c-87 56 -91 69 -91 367 0 138 3 340
7 449 l6 197 85 -6 c47 -4 98 -14 112 -21 59 -31 170 -182 170 -232 0 -7 5
-13 10 -13 7 0 9 21 6 58 -3 31 -8 123 -12 205 -4 102 -10 147 -18 145 -6 0
-103 -5 -216 -10z"/>
<path d="M1471 3924 c-30 -8 -76 -26 -102 -41 -66 -36 -154 -130 -187 -200
-67 -144 -6 -334 129 -404 78 -40 198 -17 248 47 27 34 28 94 1 125 l-19 24
-1 -25 c0 -55 -67 -99 -129 -85 -29 6 -80 53 -100 92 -17 34 -13 103 10 153
53 117 202 200 359 200 l37 0 5 -292 c4 -161 5 -475 5 -698 -2 -404 -2 -405
-25 -442 -32 -52 -73 -83 -132 -103 -27 -9 -50 -21 -50 -26 0 -10 487 -12 594
-2 l69 6 -56 29 c-66 33 -101 78 -117 152 -7 34 -10 263 -9 713 l1 663 102 0
c128 0 188 -17 249 -70 89 -79 129 -207 107 -344 -27 -170 -120 -253 -297
-264 -83 -5 -83 -5 -83 -32 0 -15 7 -33 16 -41 34 -28 148 -217 277 -461 154
-292 281 -491 379 -594 132 -138 338 -262 509 -305 106 -27 265 -24 317 7 19
10 48 27 65 36 l32 18 -66 0 c-106 0 -177 18 -283 73 -84 43 -116 67 -196 146
-53 53 -113 116 -133 142 -55 68 -158 242 -269 454 -156 296 -215 399 -260
449 -22 26 -39 48 -37 50 2 2 38 21 79 42 169 87 261 244 248 424 -13 179
-156 331 -363 385 -84 21 -842 21 -924 -1z"/>
<path d="M2984 3933 c4 -5 31 -22 59 -39 29 -17 62 -45 75 -64 l22 -33 0 -447
0 -447 -30 -41 c-16 -23 -48 -51 -70 -64 -22 -13 -40 -26 -40 -30 0 -5 214 -8
475 -8 261 0 478 -1 482 -1 11 -2 20 18 53 131 17 58 44 145 60 193 16 49 25
87 20 85 -4 -2 -48 -46 -97 -99 -107 -115 -151 -155 -187 -169 -15 -5 -111
-10 -218 -10 l-190 0 3 199 4 199 117 7 c154 9 179 1 209 -66 13 -27 26 -49
29 -49 10 0 23 301 14 323 -11 29 -30 19 -43 -23 -19 -64 -36 -70 -193 -70
l-138 0 0 58 c0 31 3 121 7 200 l6 142 141 0 c78 0 158 -5 179 -11 48 -13 169
-126 203 -188 l25 -46 -5 40 c-3 22 -8 106 -12 188 l-7 147 -480 0 c-264 0
-477 -3 -473 -7z"/>
<path d="M5397 3928 c2 -5 27 -20 54 -33 31 -16 59 -41 76 -67 l28 -42 -2
-435 -3 -435 -26 -38 c-15 -21 -29 -38 -33 -38 -3 0 -26 -18 -51 -40 l-45 -39
283 -1 c258 0 327 6 257 24 -40 10 -104 74 -114 115 -8 30 -9 357 -3 804 l2
107 100 0 c114 0 149 -11 197 -60 49 -51 67 -106 61 -195 -4 -64 -10 -82 -38
-123 -50 -74 -89 -96 -177 -100 -40 -3 -73 -8 -73 -13 0 -5 15 -26 33 -46 46
-53 144 -209 207 -331 30 -56 70 -120 89 -141 36 -38 37 -38 131 -45 179 -12
396 8 447 42 7 4 -29 8 -80 8 -70 0 -100 4 -126 18 -63 34 -124 101 -207 226
-45 69 -100 150 -122 180 l-40 54 40 18 c54 24 154 127 180 185 31 68 30 171
0 238 -29 63 -93 129 -156 162 -94 48 -156 54 -541 51 -194 -1 -351 -6 -348
-10z"/>
<path d="M3294 2568 c-107 -72 -134 -183 -66 -271 76 -98 184 -115 285 -43
l47 34 -37 22 c-35 21 -39 21 -65 6 -48 -29 -94 -24 -133 14 -47 46 -48 94 -4
145 17 19 41 38 53 41 27 6 75 -11 92 -34 11 -15 15 -13 48 18 l35 35 -51 32
c-73 46 -136 46 -204 1z"/>
<path d="M3837 2563 c-21 -50 -97 -224 -129 -293 l-26 -55 40 -3 c54 -4 65 1
73 37 l7 31 88 0 88 0 12 -35 c11 -34 13 -35 61 -35 27 0 49 2 49 5 0 5 -74
173 -120 272 -16 34 -32 73 -36 87 -5 23 -11 26 -49 26 -40 0 -44 -2 -58 -37z
m79 -152 l23 -51 -49 0 c-28 0 -50 3 -50 6 0 13 43 104 47 100 3 -3 16 -28 29
-55z"/>
<path d="M4265 2403 l0 -193 48 0 47 0 0 56 0 57 33 -7 c31 -6 43 -16 97 -83
24 -29 27 -30 80 -24 35 4 50 9 42 14 -7 5 -31 32 -53 60 -39 49 -40 51 -20
59 31 11 61 67 61 115 0 33 -7 50 -31 78 -49 55 -63 60 -189 60 l-115 0 0
-192z m219 94 c21 -16 24 -60 6 -82 -8 -10 -31 -15 -71 -15 l-59 0 0 55 0 55
53 0 c29 0 61 -6 71 -13z"/>
<path d="M5060 2425 c0 -93 3 -179 6 -190 4 -16 14 -20 46 -20 l41 0 1 45 c1
35 5 45 19 48 37 7 67 -9 97 -53 31 -45 31 -45 91 -45 l61 0 -46 52 c-25 29
-46 56 -46 60 0 5 14 21 31 36 32 29 53 92 42 127 -3 11 -14 31 -25 44 -39 50
-56 56 -191 61 l-127 5 0 -170z m220 72 c30 -15 38 -58 15 -81 -12 -11 -35
-16 -81 -16 l-64 0 0 55 0 55 53 0 c28 0 63 -6 77 -13z"/>
<path d="M5590 2405 l0 -190 150 -1 151 -1 -3 41 -3 41 -102 3 -103 3 0 35 0
36 78 -3 77 -4 3 38 3 37 -80 0 -81 0 0 34 c0 30 4 34 31 40 17 3 64 6 103 6
l71 0 1 41 1 40 -148 -3 -149 -3 0 -190z"/>
<path d="M6090 2405 l0 -195 40 0 40 0 1 83 c1 45 4 93 8 106 7 25 7 24 43
-20 20 -24 60 -72 88 -107 34 -42 57 -61 67 -58 8 3 26 6 39 6 l24 0 0 190 0
189 -45 -1 -45 -1 0 -102 c0 -56 -3 -105 -7 -108 -3 -4 -20 12 -37 36 -17 24
-58 73 -90 110 -51 57 -64 67 -93 67 l-33 0 0 -195z"/>
<path d="M6630 2553 l0 -48 60 3 61 4 -3 -140 c-2 -77 -1 -142 2 -145 3 -3 25
-7 49 -8 l45 -4 -3 148 -3 147 56 0 56 0 0 45 0 45 -160 0 -160 0 0 -47z"/>
<path d="M7431 2413 l2 -48 10 38 c11 38 24 45 58 27 28 -15 23 -38 -8 -42
-19 -2 -29 -9 -30 -23 -2 -11 0 -14 3 -7 9 20 37 14 59 -14 l20 -25 -5 68 -5
68 -52 3 -53 3 1 -48z"/>
<path d="M7616 2444 c-14 -36 -6 -85 19 -109 24 -25 45 -32 45 -17 0 4 -9 13
-21 20 -12 7 -18 16 -15 19 3 3 -2 12 -10 20 -23 23 -11 38 30 36 41 -3 46 9
14 31 -29 20 -54 20 -62 0z"/>
<path d="M7772 2387 c2 -45 7 -72 16 -75 7 -2 12 6 12 22 0 28 27 37 36 12 7
-18 54 -50 61 -42 4 3 -2 15 -12 26 -16 17 -17 25 -7 40 15 25 15 67 0 76 -6
4 -33 8 -60 10 l-49 2 3 -71z m96 32 c2 -11 -8 -20 -27 -27 -35 -12 -42 -6
-30 26 10 27 52 28 57 1z"/>
<path d="M7235 2404 c-23 -23 -9 -32 55 -36 54 -3 55 -2 58 25 3 26 2 27 -47
27 -33 0 -55 -6 -66 -16z"/>
<path d="M3680 2004 c0 -5 7 -31 15 -59 9 -27 20 -66 25 -87 9 -33 13 -36 36
-29 20 5 32 22 54 75 16 38 27 73 24 77 -10 17 -34 9 -34 -10 0 -20 -31 -81
-41 -81 -3 0 -11 17 -17 38 -11 35 -62 98 -62 76z"/>
<path d="M4170 1910 c0 -73 3 -90 15 -90 12 0 15 13 15 56 l0 56 53 -58 52
-57 7 49 c12 89 9 134 -7 134 -11 0 -15 -12 -15 -50 0 -54 -9 -62 -33 -27 -23
35 -65 77 -77 77 -6 0 -10 -34 -10 -90z"/>
<path d="M4402 1983 c2 -11 14 -19 31 -21 27 -3 27 -4 27 -73 0 -52 3 -70 13
-67 7 3 13 29 15 71 3 59 5 66 25 69 12 2 22 10 22 18 0 12 -16 16 -68 18 -62
3 -68 1 -65 -15z"/>
<path d="M4854 1975 c-38 -30 -45 -53 -28 -93 14 -34 59 -62 99 -62 58 0 90
81 38 101 -14 5 -33 7 -41 4 -13 -5 -12 -8 2 -23 9 -10 16 -24 16 -30 0 -19
-45 -14 -63 6 -39 43 -6 88 59 80 38 -4 47 14 15 32 -32 16 -64 12 -97 -15z"/>
<path d="M5090 1911 l0 -89 61 -1 c51 0 60 2 55 15 -3 9 -6 18 -6 20 0 2 -16
4 -35 4 -28 0 -35 4 -35 20 0 16 7 20 30 20 20 0 30 5 30 15 0 10 -10 15 -30
15 -20 0 -30 5 -30 15 0 11 11 15 40 15 28 0 40 4 40 14 0 18 -22 26 -76 26
l-44 0 0 -89z"/>
<path d="M5690 1908 l0 -88 53 0 c30 0 57 3 60 7 13 12 -15 33 -44 33 -19 0
-29 5 -29 15 0 10 11 15 35 15 29 0 35 4 35 21 0 18 -5 20 -37 17 -30 -2 -38
1 -41 16 -3 16 2 18 42 15 41 -4 46 -2 46 16 0 18 -7 20 -60 20 l-60 0 0 -87z"/>
<path d="M5923 1993 c-9 -3 -13 -31 -13 -90 0 -75 2 -84 18 -81 11 2 19 15 22
38 l5 34 37 -39 c41 -44 58 -42 34 4 -15 29 -15 31 4 41 13 7 20 21 20 41 0
25 -6 33 -35 45 -34 14 -69 17 -92 7z m87 -47 c0 -7 -7 -19 -15 -26 -12 -10
-18 -10 -30 0 -25 21 -18 40 15 40 19 0 30 -5 30 -14z"/>
<path d="M6144 1978 c3 -13 6 -52 6 -88 l0 -65 57 1 c46 0 59 4 61 17 3 14 -5
17 -42 17 -39 0 -46 3 -46 19 0 16 8 20 37 23 52 4 56 28 4 28 -30 0 -41 4
-41 15 0 11 12 15 45 15 38 0 45 3 45 20 0 18 -7 20 -66 20 -64 0 -66 -1 -60
-22z"/>
<path d="M3946 1953 c-3 -21 -6 -60 -6 -86 l0 -48 58 3 c43 2 57 7 57 18 0 10
-13 16 -42 18 -24 2 -43 5 -43 7 0 19 16 35 35 35 34 0 55 10 55 27 0 11 -10
14 -41 11 -27 -2 -44 1 -46 10 -3 8 10 12 46 12 39 0 51 4 51 15 0 12 -13 15
-59 15 l-58 0 -7 -37z"/>
<path d="M4626 1914 c-20 -42 -36 -80 -36 -85 0 -15 19 -10 40 11 12 12 33 20
54 20 26 0 36 -5 41 -20 5 -17 35 -30 35 -15 0 14 -81 165 -89 165 -5 0 -25
-34 -45 -76z m49 -22 c-22 -5 -27 1 -19 23 7 17 8 17 21 -1 12 -17 12 -19 -2
-22z"/>
<path d="M5432 1910 c3 -68 6 -80 21 -80 12 0 17 8 17 29 0 21 6 30 23 35 47
13 57 8 57 -28 0 -31 19 -53 34 -39 3 4 6 42 6 85 0 70 -2 78 -19 78 -14 0
-21 -8 -23 -27 -3 -24 -8 -28 -40 -31 -36 -3 -38 -2 -38 27 0 25 -4 31 -21 31
-19 0 -20 -5 -17 -80z"/>
<path d="M6470 1890 c0 -18 7 -20 85 -20 64 0 85 3 85 13 0 10 19 14 67 15
130 4 74 12 -80 12 -150 0 -157 -1 -157 -20z"/>
<path d="M6838 1903 c7 -3 16 -2 19 1 4 3 -2 6 -13 5 -11 0 -14 -3 -6 -6z"/>
<path d="M7303 1903 c15 -2 39 -2 55 0 15 2 2 4 -28 4 -30 0 -43 -2 -27 -4z"/>
<path d="M7428 1903 c12 -2 32 -2 45 0 12 2 2 4 -23 4 -25 0 -35 -2 -22 -4z"/>
<path d="M4765 1605 c-33 -32 -33 -74 0 -105 22 -21 29 -22 45 -12 34 21 22
-4 -15 -32 -40 -31 -45 -52 -14 -61 29 -10 68 21 98 76 32 60 24 111 -22 139
-42 26 -63 25 -92 -5z m63 -27 c15 -15 16 -54 2 -63 -22 -13 -50 6 -50 34 0
41 22 55 48 29z"/>
<path d="M5010 1610 c-28 -28 -25 -45 10 -72 l31 -24 -31 -39 c-28 -35 -37
-76 -17 -75 4 0 34 0 67 0 52 0 60 2 60 19 0 20 -18 31 -52 31 -18 0 -15 6 21
45 47 51 51 76 16 110 -30 31 -77 33 -105 5z m78 -46 c2 -11 -4 -27 -14 -34
-14 -12 -18 -12 -30 4 -10 14 -10 24 -3 38 13 24 43 19 47 -8z"/>
<path d="M5250 1603 c-16 -21 -20 -37 -16 -62 8 -51 31 -71 69 -60 33 9 43 6
32 -10 -3 -6 -22 -11 -41 -11 -26 0 -34 -4 -34 -18 0 -47 54 -56 94 -16 35 35
48 88 36 136 -19 70 -99 93 -140 41z m88 -65 c3 -33 0 -38 -18 -38 -23 0 -46
40 -36 65 3 10 15 15 28 13 19 -2 24 -10 26 -40z"/>
<path d="M4578 1608 c-3 -7 -3 -57 0 -110 4 -88 6 -98 23 -98 17 0 19 9 19
110 0 101 -2 110 -19 110 -10 0 -21 -6 -23 -12z"/>
</g>
</svg>
